<?xml version="1.0" encoding="UTF-8"?>
<svg xmlns="http://www.w3.org/2000/svg" xmlns:xlink="http://www.w3.org/1999/xlink" width="100" height="101" viewBox="0 0 100 101">
  <defs>
    <path id="prefix__b" d="M0.549 0.364L54.463 0.364 54.463 88.333 0.549 88.333z"></path>
    <path id="prefix__d" d="M0.015 0.103L47.945 0.103 47.945 84.444 0.015 84.444z"></path>
    <linearGradient id="prefix__a" x1="50%" x2="50%" y1="7.2%" y2="100%">
      <stop offset="0%" stop-color="#D8EFF9"></stop>
      <stop offset="100%" stop-color="#F9FBFB"></stop>
    </linearGradient>
  </defs>
  <g fill="none" fill-rule="evenodd">
    <path fill="url(#prefix__a)" d="M49.93.556C22.354.556 0 22.77 0 50.174c0 27.403 22.354 49.618 49.93 49.618 27.577 0 49.93-22.215 49.93-49.618C99.86 22.77 77.508.556 49.93.556z"></path>
    <g>
      <g transform="translate(8.386 11.459) translate(13.976)">
        <mask id="prefix__c" fill="#fff">
          <use xlink:href="#prefix__b"></use>
        </mask>
        <path fill="#FFC80A" d="M47.769.364H7.242C3.561.364.55 3.358.55 7.016v73.43c7.788 4.99 17.063 7.888 27.02 7.888 9.902 0 19.13-2.866 26.894-7.806V7.016c0-3.659-3.013-6.652-6.694-6.652" mask="url(#prefix__c)"></path>
      </g>
      <g transform="translate(8.386 11.459) translate(17.33 3.889)">
        <mask id="prefix__e" fill="#fff">
          <use xlink:href="#prefix__d"></use>
        </mask>
        <path fill="#FFF" d="M44.952.103h-5.275c-.801 0-1.507.523-1.736 1.286l-.23.766c-.255.85-1.042 1.433-1.936 1.433H12.227c-.916 0-1.717-.612-1.952-1.492l-.175-.654C9.89.652 9.17.102 8.349.102H3.008C1.36.103.015 1.443.015 3.078v75.157c7.169 3.955 15.418 6.21 24.2 6.21 8.589 0 16.672-2.156 23.73-5.952V3.077c0-1.636-1.347-2.974-2.993-2.974" mask="url(#prefix__e)"></path>
      </g>
      <g>
        <path fill="#F8FDFF" d="M42.151 66.252H1.354c-.536 0-.974-.484-.974-1.016V1.359C.33.729.818.246 1.306.246h40.797c.584 0 1.022.484 1.022 1.016v63.877c0 .58-.438 1.065-.974 1.065" transform="translate(8.386 11.459) translate(19.567 11.111)"></path>
        <path stroke="#DCECF3" stroke-width=".871" d="M42.151 66.252H1.354c-.536 0-.974-.484-.974-1.016V1.359C.33.729.818.246 1.306.246h40.797c.584 0 1.022.484 1.022 1.016v63.877c0 .58-.438 1.065-.974 1.065" transform="translate(8.386 11.459) translate(19.567 11.111)"></path>
      </g>
      <path fill="#2B2D42" fill-opacity=".5" d="M44.596 4.24H33.483c-.185 0-.336-.15-.336-.333v-.275c0-.183.151-.333.336-.333h11.113c.185 0 .336.15.336.333v.276c0 .183-.151.333-.336.333M48.667 4.24h-1.573c-.184 0-.335-.15-.335-.333v-.275c0-.183.15-.333.335-.333h1.573c.184 0 .335.15.335.333v.276c0 .183-.15.333-.335.333" transform="translate(8.386 11.459)"></path>
      <path fill="#ECF1F8" d="M58.723 65.89l-4.016-.036c-.405 0-.737-.366-.737-.769l.074-3.99c0-.404.368-.733.774-.733l3.979.037c.442 0 .774.366.774.805l-.074 3.955c0 .44-.369.769-.774.732m0-7.067l-4.016-.036c-.405 0-.737-.366-.737-.77l.074-3.99c0-.403.368-.733.774-.733l3.979.037c.442 0 .774.366.774.806l-.074 3.954c0 .44-.369.769-.774.732m-31.21-.51l-3.979-.073c-.442 0-.773-.366-.773-.768l.073-3.955c0-.44.369-.769.774-.769l4.016.073c.406 0 .737.366.737.769l-.074 3.991c0 .403-.369.732-.773.732m-.386 7.47l-3.98-.036c-.442 0-.773-.367-.736-.806l.037-3.954c0-.44.368-.77.773-.733l4.017.036c.405 0 .736.367.736.77l-.036 3.99c0 .403-.369.733-.811.733m23.45.64L46.6 66.35c-.405 0-.736-.366-.736-.77l.037-3.99c0-.402.368-.732.81-.732l3.98.073c.442 0 .773.366.736.77l-.036 3.953c0 .44-.369.77-.774.77m-7.774-.147l-3.98-.073c-.406 0-.737-.366-.737-.732l.074-4.028c0-.366.368-.733.737-.733l4.052.074c.37 0 .738.366.738.769l-.074 3.99c0 .404-.369.733-.774.733m-7.774-.11l-3.98-.073c-.405 0-.737-.366-.737-.806l.074-3.954c0-.403.368-.733.774-.733l4.016.037c.405 0 .737.366.737.806l-.074 3.954c0 .44-.368.732-.774.732m15.586-7.396l-3.98-.073c-.442 0-.773-.366-.736-.732l.037-4.028c0-.366.368-.732.773-.732l4.017.073c.405 0 .736.366.736.769l-.036 3.991c0 .402-.369.732-.811.732m-7.738-.11l-3.979-.073c-.442 0-.736-.366-.736-.806l.036-3.954c0-.439.369-.732.811-.732l3.98.036c.442 0 .736.367.736.806l-.037 3.954c0 .44-.368.733-.81.733m-7.701-.11l-4.016-.074c-.405 0-.737-.365-.737-.768l.037-3.991c0-.403.369-.732.81-.732l3.98.073c.442 0 .774.366.736.768l-.036 3.955c0 .44-.368.769-.774.769" transform="translate(8.386 11.459)"></path>
      <path fill="#BEC6D5" d="M55.407 56.629l2.69.037v-.44h-2.69v.403zm0-.77l2.727.038v-.44h-2.727v.403zm-8.144 7.965l2.726.037v-.403l-2.69-.074-.036.44zm2.873-7.982h-1.104v-1.099h-.443v1.099h-1.142v.366l1.105.036v1.099l.406.036.036-1.098H50.1l.036-.44zM57.337 63.412l.556.175c-.085.309-.227.538-.426.688-.198.15-.45.224-.754.224-.378 0-.688-.128-.93-.384-.244-.256-.365-.607-.365-1.05 0-.471.122-.837.366-1.096.244-.26.566-.39.963-.39.348 0 .63.102.848.306.129.12.226.294.29.52l-.568.135c-.034-.146-.103-.262-.21-.347-.107-.084-.236-.127-.388-.127-.21 0-.382.075-.513.225-.131.15-.197.394-.197.73 0 .358.065.611.194.763.129.152.297.228.504.228.153 0 .283-.048.393-.145.11-.096.189-.248.237-.455" transform="translate(8.386 11.459)"></path>
      <path fill="#EA9F91" d="M33.072 53.754c-3.623.46-4.47 9.192-10.253 15.857-5.781 6.664-7.63 9.345-7.63 9.345l-.54-26.888s-3.084-1.608-4.78 0c-1.232 1.17-6.695 9.898-9.59 14.585 6.836 9.954 17.224 17.304 29.35 20.255.26-.933.49-1.947.668-3.05 1.156-7.123 6.013-19.303 6.398-22.137.386-2.835 0-8.427-3.623-7.967" transform="translate(8.386 11.459)"></path>
      <path fill="#FFD2CC" d="M31.222 54.903s-2.313 5.17.81 5.4c2.383.176 3.756-1.927 4.272-2.93.166-.325.187-.702.065-1.045-1.005-2.813-2.45-2.566-2.45-2.566s-1.649-.392-2.697 1.14" transform="translate(8.386 11.459)"></path>
      <path fill="#A5817C" fill-opacity=".5" d="M14.673 53.195s-3.042 2.562-3.23 9c-.186 6.44 3.745 16.762 3.745 16.762l-.515-25.762z" transform="translate(8.386 11.459)"></path>
      <path fill="#ECF1F8" d="M59.87 47.908l-36.99-.173c-.383 0-.695-.345-.695-.725v-7.222c0-.414.347-.725.695-.69l36.99.137c.417 0 .73.346.73.691v7.257c0 .38-.347.69-.73.69" transform="translate(8.386 11.459)"></path>
      <path fill="#2B2E42" fill-opacity=".1" d="M54.933 44.626l-41.198 2.359c-.417 0-.73-.276-.765-.691l-.348-7.187c-.034-.415.278-.76.696-.76l41.198-2.394c.382 0 .73.31.764.69l.348 7.222c0 .38-.278.726-.695.76" transform="translate(8.386 11.459)"></path>
      <path fill="#FFF" d="M54.203 43.9L13.21 46.26c-.417.034-.73-.277-.764-.692l-.348-7.187c-.035-.414.278-.76.695-.76l40.992-2.394c.383 0 .73.311.765.691l.348 7.222c0 .415-.278.726-.695.76" transform="translate(8.386 11.459)"></path>
      <path fill="#BEC6D5" d="M38.73 41.205c.122.48-.172.97-.656 1.09-.484.121-.976-.17-1.098-.652-.027-.11-.034-.223-.02-.334.106-.485.587-.794 1.075-.69.31.066.56.289.664.586h.035zm7.58.518l-6.467.346-.035-1.037 6.432-.345.07 1.036zm-10.466.519l-6.432.345-.07-1.037 6.467-.345.035 1.037zm-7.267.345l-6.467.346-.035-1.037 6.433-.346.07 1.037zm-7.302.38l-6.432.311-.07-1.036 6.433-.346.07 1.071z" transform="translate(8.386 11.459)"></path>
      <path fill="#FFC80A" d="M50.381 37.06l.051.886c.473.045.837.244 1.14.52l-.542.702c-.343-.201-.604-.297-.955-.277-.249.013-.369.095-.36.239.02.383 1.963.25 2.032 1.497.031.567-.335 1.062-1.099 1.25l.057 1.033-.772.043-.055-1.002c-.436-.029-.973-.185-1.348-.475l.467-.823c.483.249.849.366 1.25.345.254-.015.382-.09.374-.227-.026-.466-1.965-.278-2.036-1.566-.034-.597.37-1.044 1.073-1.205l-.049-.898.772-.043zM49.545 24.54c0 4.494-3.667 8.138-8.19 8.138s-8.19-3.644-8.19-8.138c0-4.495 3.667-8.139 8.19-8.139s8.19 3.644 8.19 8.139" transform="translate(8.386 11.459)"></path>
      <path fill="#FFC80A" d="M46.903 24.506c0 3.08-2.512 5.576-5.61 5.576-3.1 0-5.611-2.496-5.611-5.576 0-1.712.776-3.245 2-4.267.975-.816 2.235-1.308 3.61-1.308 3.1 0 5.61 2.496 5.61 5.575" transform="translate(8.386 11.459)"></path>
      <path fill="#2B2D42" fill-opacity=".2" d="M46.903 24.506c0 3.08-2.512 5.576-5.61 5.576-3.1 0-5.611-2.496-5.611-5.576 0-1.712.776-3.245 2-4.267.975-.816 2.235-1.308 3.61-1.308 3.1 0 5.61 2.496 5.61 5.575" transform="translate(8.386 11.459)"></path>
      <path fill="#FBF0CB" d="M41.292 19.126c-1.273 0-2.51.448-3.483 1.262-1.227 1.026-1.932 2.528-1.932 4.119 0 2.966 2.43 5.38 5.415 5.38 2.986 0 5.415-2.414 5.415-5.38 0-2.968-2.429-5.38-5.415-5.38m0 11.15c-3.202 0-5.807-2.589-5.807-5.77 0-1.707.754-3.318 2.07-4.418 1.044-.873 2.37-1.353 3.737-1.353 3.202 0 5.808 2.588 5.808 5.77 0 3.182-2.606 5.771-5.808 5.771" transform="translate(8.386 11.459)"></path>
      <path fill="#FBF0CB" d="M42.22 25.682c0-.063-.013-.12-.042-.173-.029-.052-.07-.098-.123-.137-.052-.04-.114-.074-.185-.106-.07-.031-.148-.06-.232-.086v1.05c.094-.02.178-.05.252-.086.074-.037.135-.079.185-.126.05-.047.087-.099.111-.156.023-.058.035-.118.035-.18m-1.332-1.904v-.956c-.182.026-.32.083-.417.172-.095.089-.144.2-.144.337 0 .058.014.108.04.152.027.045.065.086.113.122.048.037.106.07.176.098.069.029.147.054.232.075m2.468 1.778c0 .22-.036.423-.106.612-.072.187-.179.354-.32.497-.142.144-.321.262-.536.357-.216.093-.468.156-.757.187v.4c0 .1-.035.184-.106.255-.072.07-.158.105-.257.105-.11 0-.203-.035-.276-.105-.073-.07-.11-.156-.11-.255v-.391c-.158-.016-.32-.043-.489-.08-.169-.035-.329-.083-.481-.14-.154-.058-.288-.125-.407-.204-.118-.078-.208-.164-.271-.258-.027-.042-.046-.083-.06-.122-.013-.04-.02-.082-.02-.13 0-.145.053-.268.158-.367.105-.1.226-.15.364-.15.11 0 .212.032.307.095.125.088.264.164.414.227.15.063.311.11.485.14v-1.237c-.206-.052-.407-.112-.608-.18-.2-.068-.38-.161-.543-.279-.163-.117-.295-.264-.395-.442-.1-.178-.15-.4-.15-.666 0-.198.038-.387.115-.565.076-.177.188-.336.335-.477.147-.141.324-.26.532-.353.208-.094.446-.154.714-.18v-.416c0-.099.037-.184.11-.254.073-.07.166-.106.276-.106.1 0 .185.035.257.106.07.07.106.155.106.254v.431c.115.017.242.038.378.067.137.028.269.067.394.114.127.047.242.103.348.168.105.065.186.14.244.223.052.079.079.16.079.243 0 .073-.016.142-.048.204-.031.063-.074.116-.126.16-.053.045-.113.08-.181.106-.069.027-.137.04-.206.04-.047 0-.096-.008-.149-.024-.116-.031-.236-.082-.363-.153-.125-.07-.25-.119-.37-.144v1.104c.204.052.408.114.61.185.203.07.387.164.553.282.165.117.3.266.402.446.102.18.154.403.154.67" transform="translate(8.386 11.459)"></path>
    </g>
  </g>
</svg>
