<?xml version="1.0" encoding="UTF-8"?>
<svg xmlns="http://www.w3.org/2000/svg" width="160" height="160" viewBox="0 0 160 160">
  <g fill="none" fill-rule="evenodd">
    <path d="M0 0H160V160H0z"></path>
    <g fill-rule="nonzero">
      <path fill="#957A25" d="M84.629 53.829H123.176V94.707H84.629z" transform="translate(11 15)"></path>
      <path fill="#2B2D42" d="M93.53 75.987v18.72h22.637v-18.72c0-7.284-5.063-13.186-11.319-13.186-6.247-.008-11.318 5.902-11.318 13.186z" opacity=".3" transform="translate(11 15)"></path>
      <path fill="#FFC80A" d="M30.643 53.829H84.62899999999999V94.707H30.643z" transform="translate(11 15)"></path>
      <path fill="#2B2D42" d="M45.65 75.987v18.72h26.374v-18.72c.004-7.273-5.882-13.177-13.155-13.194-3.504-.008-6.868 1.378-9.348 3.854-2.48 2.475-3.872 5.836-3.87 9.34z" opacity=".3" transform="translate(11 15)"></path>
      <path fill="#FFF" d="M24.05 46.553H86.70100000000001V53.82899999999999H24.05z" transform="translate(11 15)"></path>
      <path fill="#DCECF3" d="M27.284 89.189H34.003V94.707H27.284z" transform="translate(11 15)"></path>
      <path fill="#BFD1D8" d="M34.003 89.189H38.397999999999996V94.707H34.003z" transform="translate(11 15)"></path>
      <path fill="#FFF" d="M27.284 91.465H34.003V92.90100000000001H27.284z" transform="translate(11 15)"></path>
      <path fill="#DCECF3" d="M34.003 91.465H38.397999999999996V92.90100000000001H34.003z" transform="translate(11 15)"></path>
      <path fill="#FFF" d="M29.623 59.08L29.144 89.189 33.108 89.189 32.865 59.08z" transform="translate(11 15)"></path>
      <path fill="#BFD1D8" d="M36.852 89.189L33.108 89.189 32.865 59.08 36.224 59.08z" transform="translate(11 15)"></path>
      <path fill="#DCECF3" d="M28.485 53.829H34.066V59.08H28.485z" transform="translate(11 15)"></path>
      <path fill="#BFD1D8" d="M34.066 53.829H37.575V59.08H34.066zM29.341 53.829L34.066 57.024 34.066 53.829zM29.968 59.08L32.865 59.08 32.896 62.463z" transform="translate(11 15)"></path>
      <path fill="#DCECF3" d="M40.094 89.189H46.813V94.707H40.094z" transform="translate(11 15)"></path>
      <path fill="#BFD1D8" d="M46.805 89.189H51.2V94.707H46.805z" transform="translate(11 15)"></path>
      <path fill="#FFF" d="M40.094 91.465H46.813V92.90100000000001H40.094z" transform="translate(11 15)"></path>
      <path fill="#DCECF3" d="M46.805 91.465H51.2V92.90100000000001H46.805z" transform="translate(11 15)"></path>
      <path fill="#FFF" d="M42.433 59.08L41.946 89.189 45.91 89.189 45.667 59.08z" transform="translate(11 15)"></path>
      <path fill="#BFD1D8" d="M49.654 89.189L45.91 89.189 45.667 59.08 49.026 59.08z" transform="translate(11 15)"></path>
      <path fill="#DCECF3" d="M41.287 53.829H46.868V59.08H41.287z" transform="translate(11 15)"></path>
      <path fill="#BFD1D8" d="M46.867 53.829H50.376V59.08H46.867zM42.142 53.829L46.867 57.024 46.867 53.829zM42.77 59.08L45.667 59.08 45.698 62.463z" transform="translate(11 15)"></path>
      <path fill="#DCECF3" d="M59.261 89.189H65.98V94.707H59.261z" transform="translate(11 15)"></path>
      <path fill="#BFD1D8" d="M65.98 89.189H70.375V94.707H65.98z" transform="translate(11 15)"></path>
      <path fill="#FFF" d="M59.261 91.465H65.98V92.90100000000001H59.261z" transform="translate(11 15)"></path>
      <path fill="#DCECF3" d="M65.98 91.465H70.375V92.90100000000001H65.98z" transform="translate(11 15)"></path>
      <path fill="#FFF" d="M61.6 59.08L61.121 89.189 65.077 89.189 64.842 59.08z" transform="translate(11 15)"></path>
      <path fill="#BFD1D8" d="M68.829 89.189L65.077 89.189 64.842 59.08 68.201 59.08z" transform="translate(11 15)"></path>
      <path fill="#DCECF3" d="M60.462 53.829H66.043V59.08H60.462z" transform="translate(11 15)"></path>
      <path fill="#BFD1D8" d="M66.043 53.829H69.552V59.08H66.043zM61.318 53.829L66.043 57.024 66.043 53.829zM61.945 59.08L64.842 59.08 64.865 62.463z" transform="translate(11 15)"></path>
      <path fill="#DCECF3" d="M72.11 89.189H78.829V94.707H72.11z" transform="translate(11 15)"></path>
      <path fill="#BFD1D8" d="M78.829 89.189H83.22399999999999V94.707H78.829z" transform="translate(11 15)"></path>
      <path fill="#FFF" d="M72.11 91.465H78.829V92.90100000000001H72.11z" transform="translate(11 15)"></path>
      <path fill="#DCECF3" d="M78.829 91.465H83.22399999999999V92.90100000000001H78.829z" transform="translate(11 15)"></path>
      <path fill="#FFF" d="M74.449 59.08L73.97 89.189 77.926 89.189 77.691 59.08z" transform="translate(11 15)"></path>
      <path fill="#BFD1D8" d="M81.678 89.189L77.926 89.189 77.691 59.08 81.05 59.08z" transform="translate(11 15)"></path>
      <path fill="#DCECF3" d="M73.311 53.829H78.89200000000001V59.08H73.311z" transform="translate(11 15)"></path>
      <path fill="#BFD1D8" d="M78.892 53.829H82.401V59.08H78.892zM74.166 53.829L78.892 57.024 78.892 53.829zM74.794 59.08L77.691 59.08 77.714 62.463z" transform="translate(11 15)"></path>
      <path fill="#DCECF3" d="M89.935 89.189H96.654V94.707H89.935z" transform="translate(11 15)"></path>
      <path fill="#BFD1D8" d="M96.654 89.189H101.04899999999999V94.707H96.654z" transform="translate(11 15)"></path>
      <path fill="#FFF" d="M89.935 91.465H96.654V92.90100000000001H89.935z" transform="translate(11 15)"></path>
      <path fill="#DCECF3" d="M96.654 91.465H101.04899999999999V92.90100000000001H96.654z" transform="translate(11 15)"></path>
      <path fill="#FFF" d="M92.274 59.08L91.795 89.189 95.759 89.189 95.516 59.08z" transform="translate(11 15)"></path>
      <path fill="#BFD1D8" d="M99.503 89.189L95.759 89.189 95.516 59.08 98.875 59.08z" transform="translate(11 15)"></path>
      <path fill="#DCECF3" d="M91.136 53.829H96.717V59.08H91.136z" transform="translate(11 15)"></path>
      <path fill="#BFD1D8" d="M96.717 53.829H100.226V59.08H96.717zM91.992 53.829L96.717 57.024 96.717 53.829zM92.62 59.08L95.516 59.08 95.547 62.463z" transform="translate(11 15)"></path>
      <path fill="#DCECF3" d="M116.779 89.189H123.49799999999999V94.707H116.779z" transform="translate(11 15)"></path>
      <path fill="#BFD1D8" d="M123.498 89.189H127.893V94.707H123.498z" transform="translate(11 15)"></path>
      <path fill="#FFF" d="M116.779 91.465H123.49799999999999V92.90100000000001H116.779z" transform="translate(11 15)"></path>
      <path fill="#DCECF3" d="M123.498 91.465H127.893V92.90100000000001H123.498z" transform="translate(11 15)"></path>
      <path fill="#FFF" d="M119.118 59.08L118.639 89.189 122.595 89.189 122.36 59.08z" transform="translate(11 15)"></path>
      <path fill="#BFD1D8" d="M126.347 89.189L122.595 89.189 122.36 59.08 125.719 59.08z" transform="translate(11 15)"></path>
      <path fill="#DCECF3" d="M117.98 53.829H123.561V59.08H117.98z" transform="translate(11 15)"></path>
      <path fill="#BFD1D8" d="M123.561 53.829H127.07000000000001V59.08H123.561zM118.835 53.829L123.561 57.024 123.561 53.829zM119.463 59.08L122.36 59.08 122.383 62.463z" transform="translate(11 15)"></path>
      <path fill="#FFF" d="M27.041 94.707H86.937V101.66099999999999H27.041z" transform="translate(11 15)"></path>
      <path fill="#BFD1D8" d="M86.937 94.707H129.62V101.66099999999999H86.937z" transform="translate(11 15)"></path>
      <path fill="#FFF" d="M23.03 101.661H88.58500000000001V108.615H23.03z" transform="translate(11 15)"></path>
      <path fill="#BFD1D8" d="M88.585 101.661H133.34799999999998V108.615H88.585z" transform="translate(11 15)"></path>
      <path fill="#FFF" d="M19.058 108.624H89.935V115.57799999999999H19.058z" transform="translate(11 15)"></path>
      <path fill="#BFD1D8" d="M89.927 108.624H136.935V115.57799999999999H89.927z" transform="translate(11 15)"></path>
      <path fill="#DCECF3" d="M86.937 101.073H129.62V102.073H86.937zM88.585 108.027H133.34799999999998V109.027H88.585zM27.041 101.073H86.937V102.073H27.041z" transform="translate(11 15)"></path>
      <path fill="#DCECF3" d="M23.03 108.027H88.58500000000001V109.027H23.03z" transform="translate(11 15)"></path>
      <path fill="#2B2D42" d="M100.249 94.707H119.723V101.065H100.249z" opacity=".2" transform="translate(11 15)"></path>
      <path fill="#2B2D42" d="M104.833 101.661H124.307V108.027H104.833z" opacity=".1" transform="translate(11 15)"></path>
      <path fill="#2B2D42" d="M109.354 108.655H126.795V115.586H109.354z" opacity=".05" transform="translate(11 15)"></path>
      <path fill="#BFD1D8" d="M86.631 46.553H131.292V53.82899999999999H86.631z" transform="translate(11 15)"></path>
      <path fill="#FFEBB5" d="M24.05 46.553H86.70100000000001V47.683H24.05z" transform="translate(11 15)"></path>
      <path fill="#FFC80A" d="M86.631 46.553H131.292V47.683H86.631zM14.812 42.111L14.812 46.553 92.604 46.553 92.604 42.111 53.704 18.964z" transform="translate(11 15)"></path>
      <path fill="#2B2D42" d="M22.488 42.472L54.041 23.281 56.561 24.717 27.284 42.472z" opacity=".3" transform="translate(11 15)"></path>
      <path fill="#FFEBB5" d="M27.284 42.472L85.83 42.472 56.561 24.717z" transform="translate(11 15)"></path>
      <path fill="#957A25" d="M92.604 42.111H134.424V46.546H92.604z" transform="translate(11 15)"></path>
      <path fill="#FFC80A" d="M134.424 42.111L92.604 42.111 53.704 18.964 104.244 18.964z" transform="translate(11 15)"></path>
      <path fill="#2B2D42" d="M134.424 42.111L92.604 42.111 53.704 18.964 104.244 18.964z" opacity=".3" transform="translate(11 15)"></path>
      <path fill="#2B2D42" d="M77.832 28.375L84.849 32.692 115.437 32.692 107.878 28.375z" opacity=".3" transform="translate(11 15)"></path>
      <path fill="#FFF" d="M86.34 15.793L96.693 5.495c2.236-2.119 5.75-2.077 7.936.094l10.753 10.69c2.184 2.173 2.247 5.687.141 7.936l-8.202 8.477h-3.8l-17.18-16.9z" transform="translate(11 15)"></path>
      <path fill="#DCECF3" d="M103.97 32.001l-1.147-1.13 8.226-8.36c1.404-1.446 1.372-3.756-.07-5.164l-7.48-7.3c-1.42-1.377-3.676-1.377-5.095 0l-4.78 4.71-1.138-1.154 4.78-4.71c2.055-1.988 5.316-1.988 7.37 0l7.48 7.292c2.077 2.04 2.12 5.373.095 7.465L103.969 32z" transform="translate(11 15)"></path>
      <path fill="#BFD1D8" d="M93.75 1.657l14.984 14.983s1.672-1.923 3.861-1.499c2.19.424 2.983 1.35 2.983 1.35L100.335 1.272c-1.62-1.624-4.225-1.703-5.942-.18l-.643.565z" transform="translate(11 15)"></path>
      <path fill="#2B2D42" d="M81.725 25.722l.448-8.226c.172-2.824 2.548-5.006 5.376-4.937l13.995.33c2.82.066 5.087 2.344 5.141 5.164l.063 14.639h-4.168l-20.855-6.97z" opacity=".1" transform="translate(11 15)"></path>
      <path fill="#FFF" d="M79.598 29.466l.463-14.176c.152-2.84 2.534-5.044 5.377-4.976l13.987.33c2.845.06 5.124 2.374 5.14 5.22l.064 16.828h-19.78l-5.251-3.226z" transform="translate(11 15)"></path>
      <path fill="#DCECF3" d="M101.858 32.707h-1.5l.11-15.125c.02-.901-.322-1.773-.948-2.42-.627-.65-1.486-1.02-2.387-1.033l-9.647-.134h-.047c-1.817.012-3.3 1.457-3.36 3.273L83.5 31.86l-1.436-.887.526-13.76c.088-2.618 2.23-4.698 4.85-4.709h.07l9.647.133c2.686.04 4.835 2.244 4.804 4.93l-.102 15.14z" transform="translate(11 15)"></path>
      <path fill="#2B2D42" d="M79.63 28.375l-8.752-5.612c-.494-.319-.72-.924-.554-1.487.165-.564.68-.952 1.268-.954h8.289l-.252 8.053z" opacity=".1" transform="translate(11 15)"></path>
      <path fill="#2B2D42" d="M86.631 46.553H131.292V53.82899999999999H86.631zM38.194 101.56c.05-.721-.312-1.408-.934-1.775l-2.3-1.475.675-7.143s1.492-6.279-3.194-13.822c-.845-1.375-1.869-2.632-3.046-3.736l-.25 15.58h-1.249l-.431 4.317-.181-.11v1.311h-.243v6.954H23.03v6.963h-3.972v6.954h17.716l1.42-14.019z" opacity=".2" transform="translate(11 15)"></path>
      <path fill="#957A25" d="M2.842 89.252l5.612-1.9c.768-.324 1.645-.257 2.355.181l21.922 14.05c.62.37.98 1.054.934 1.774l-2.268 22.691c-.08.715-.558 1.322-1.232 1.57l-4.71 1.915c-.11.047-.322-.117-.675-.266l2.088-21.884c.027-.68-.311-1.323-.887-1.687L2.842 89.252z" transform="translate(11 15)"></path>
      <path fill="#FBF0CB" d="M33.697 103.357c.046-.72-.315-1.405-.934-1.774L10.84 87.533c-.71-.438-1.587-.505-2.354-.18l-5.613 1.899 23.108 16.412 7.716-2.307z" transform="translate(11 15)"></path>
      <path fill="#FFC80A" d="M2.355 89.613L.001 112.768c-.01.15.066.292.196.369l24.583 16.098c.128.094.295.117.443.062.149-.055.26-.182.295-.337l2.3-22.762c.057-.82-.361-1.601-1.076-2.01L3.078 89.277c-.137-.084-.307-.093-.452-.025-.145.068-.247.204-.27.362z" transform="translate(11 15)"></path>
      <path fill="#BEC6D5" d="M12.881 72.895l2.48-1.154c.703-.32 1.49-.406 2.245-.244 4.353 1.014 8.094 3.78 10.337 7.645 4.71 7.551 3.195 13.823 3.195 13.823l-.785 8.398-3.39.895-1.327-15.447-5.495-8.124-4.992-1.656-3.618-1.028 1.35-3.108z" transform="translate(11 15)"></path>
      <path fill="#BEC6D5" d="M15.926 78.876s-.95.863-1.145 3.532c-.197 2.668-.872 8.634-.872 8.634l-3.14 1.06-.039-11.507 2.002-2.763 3.194 1.044z" transform="translate(11 15)"></path>
      <path fill="#BFD1D8" d="M15.926 78.876s-.95.863-1.145 3.532c-.197 2.668-.872 8.634-.872 8.634l-3.14 1.06-.039-11.507 2.002-2.763 3.194 1.044z" transform="translate(11 15)"></path>
      <path fill="#2B2D42" d="M15.926 78.876s-.95.863-1.145 3.532c-.197 2.668-.872 8.634-.872 8.634l-3.14 1.06-.039-11.507 2.002-2.763 3.194 1.044z" opacity=".2" transform="translate(11 15)"></path>
      <path fill="#BFD1D8" d="M12.881 72.895l2.48-1.154c.703-.32 1.49-.406 2.245-.244 4.353 1.014 8.094 3.78 10.337 7.645 4.71 7.551 3.195 13.823 3.195 13.823l-.785 8.398-3.39.895-1.327-15.447-5.495-8.124-4.992-1.656-3.618-1.028 1.35-3.108z" transform="translate(11 15)"></path>
      <path fill="#ECF1F8" d="M6.523 89.629l4.247 2.433 1.004-9.646c.093-.975.547-1.879 1.272-2.536.95-.863 2.527-1.57 4.953-.408 3.006 1.39 4.513 4.89 5.196 7.127.342 1.104.456 2.265.337 3.414l-.934 9.262 4.38 2.999.997-9.89c.044-.523.044-1.048 0-1.57-.134-2.66-1.076-10.204-7.355-15.015-7.708-5.942-11.153-1.123-11.153-1.123s-1.704 1.688-2.214 7.645c-.51 5.958-.73 7.308-.73 7.308z" transform="translate(11 15)"></path>
      <path fill="#FFF" d="M6.523 89.629l4.247 2.433 1.004-9.646c.093-.975.547-1.879 1.272-2.536.95-.863 2.527-1.57 4.953-.408 3.006 1.39 4.513 4.89 5.196 7.127.342 1.104.456 2.265.337 3.414l-.934 9.262 4.38 2.999.997-9.89c.044-.523.044-1.048 0-1.57-.134-2.66-1.076-10.204-7.355-15.015-7.708-5.942-11.153-1.123-11.153-1.123s-1.704 1.688-2.214 7.645c-.51 5.958-.73 7.308-.73 7.308z" transform="translate(11 15)"></path>
      <path fill="#957A25" d="M12.308 108.317l-.314 3.14c-.03.284.024.571.157.824.322.577.911.954 1.57 1.005.175.034.356-.003.504-.103.147-.1.248-.256.28-.43l.283-2.819c.023-.238.142-.456.33-.604.53-.545.802-1.29.746-2.049.047-1.428-1.1-2.613-1.743-3.14-.378-.325-.882-.464-1.373-.376-.645.113-1.109.68-1.091 1.334-.114.954.087 1.919.573 2.747.074.145.101.31.078.471z" transform="translate(11 15)"></path>
    </g>
  </g>
</svg>
