<?xml version="1.0" encoding="UTF-8"?>
<svg xmlns="http://www.w3.org/2000/svg" width="100" height="100" viewBox="0 0 100 100">
  <defs>
    <linearGradient id="prefix__a" x1="50%" x2="50%" y1="7.2%" y2="100%">
      <stop offset="0%" stop-color="#D8EFF9"></stop>
      <stop offset="100%" stop-color="#F9FBFB"></stop>
    </linearGradient>
  </defs>
  <g fill="none" fill-rule="evenodd">
    <path fill="url(#prefix__a)" d="M49.93 0C22.354 0 0 22.214 0 49.619c0 27.403 22.354 49.618 49.93 49.618 27.577 0 49.93-22.215 49.93-49.618C99.86 22.214 77.508 0 49.93 0z"></path>
    <path fill="#FFF" fill-rule="nonzero" d="M92.318 58.441c-1.29-2.268-5.279-3.866-9.452-5.028-2.79-.74-5.635-1.252-8.508-1.53V38.112c2.71.116 5.41.42 8.078.91 3.19.699 9.698 3.352 9.882 4.95.185 1.598 0 14.47 0 14.47z"></path>
    <path fill="#FFC80A" fill-rule="nonzero" d="M89.056 47c-3.972-2.564-14.201-3.765-14.307-3.777l.044-.374c.425.045 10.425 1.218 14.47 3.833l-.207.318zM89.045 49.268c-3.04-2.234-14.19-3.804-14.302-3.821l.056-.374c.458.061 11.352 1.614 14.47 3.91l-.224.285zM84.693 49.72c-3.643-1.262-9.883-2.005-9.944-2.016l.044-.374c.062 0 6.341.76 10.056 2.033l-.156.358z"></path>
    <path fill="#DBDCDD" fill-rule="nonzero" d="M81.006 65.363V50.911c2.09-.47 4.144-1.09 6.145-1.855 2.52-1.045 3.352-1.62 4.05-2.285.468-.498.86-1.063 1.162-1.676l.067 13.536c-.092 1.275-.774 2.434-1.843 3.134-2.991 1.682-6.223 2.896-9.581 3.598z"></path>
    <path stroke="#FFF" stroke-width=".69" d="M82.385 58.335v5.274c1.659-.465 3.29-1.024 4.883-1.676.79-.344 1.539-.773 2.235-1.28"></path>
    <path stroke="#FFF" stroke-width=".69" d="M83.123 62.257s.676-2.48 1.614-2.48c.939 0 .827 1.676 1.676 1.676.85 0 .257-2.079.827-2.023.348.046.655.253.827.559M88.704 52.318s3.14-1.352 3.313-2.966M88.704 56.983s3.14-1.346 3.313-2.96M88.704 54.642s3.14-1.351 3.313-2.966"></path>
    <path fill="#FFF" fill-rule="nonzero" d="M7.011 58.196c1.29-2.274 5.28-3.872 9.453-5.028 2.789-.747 5.634-1.262 8.508-1.542V37.86c-2.71.117-5.41.421-8.078.91-3.19.705-9.698 3.353-9.883 4.95-.184 1.598 0 14.476 0 14.476z"></path>
    <path fill="#FFC80A" fill-rule="nonzero" d="M15.022 40.737H16.022V51.737H15.022z"></path>
    <circle cx="15.212" cy="45.922" r="1" fill="#FFC80A" fill-rule="nonzero"></circle>
    <path fill="#FFC80A" fill-rule="nonzero" d="M17.799 40.737H18.799V51.178000000000004H17.799z"></path>
    <circle cx="17.989" cy="48.145" r="1" fill="#FFC80A" fill-rule="nonzero"></circle>
    <path fill="#FFC80A" fill-rule="nonzero" d="M20.575 40.737H21.575V50.625H20.575z"></path>
    <circle cx="20.765" cy="47.034" r="1" fill="#FFC80A" fill-rule="nonzero"></circle>
    <path fill="#DBDCDD" fill-rule="nonzero" d="M18.307 65.112V50.659c-2.09-.469-4.143-1.087-6.145-1.849-2.52-1.05-3.352-1.626-4.05-2.29-.468-.499-.86-1.064-1.162-1.676L6.883 58.38c.092 1.275.774 2.434 1.843 3.134 2.99 1.684 6.222 2.898 9.581 3.598z"></path>
    <path fill="#FFF" fill-rule="nonzero" d="M13.073 56.184c-1.372-.353-2.718-.801-4.028-1.34-2.09-.878-2.285-2.235-2.29-2.274l.373-.05c0 .05.19 1.19 2.062 1.977 1.293.53 2.62.971 3.972 1.324l-.09.363zM13.073 57.927c-1.371-.356-2.717-.804-4.028-1.34-2.09-.878-2.285-2.235-2.29-2.274l.373-.05c0 .044.19 1.184 2.062 1.972 1.294.523 2.62.96 3.972 1.307l-.09.385zM13.073 59.374c-1.372-.354-2.718-.802-4.028-1.34-2.09-.878-2.285-2.235-2.29-2.274l.373-.045h-.184.184c0 .05.19 1.19 2.062 1.972 1.291.535 2.618.977 3.972 1.324l-.09.363zM15.743 60.86L15.341 57.436 14.933 58.676 14.732 57.899 14.57 58.212 13.888 58.095 13.955 57.721 14.358 57.793 14.855 56.827 14.978 57.324 15.52 55.687 15.911 59.011 16.464 57.179 16.598 57.849 16.888 56.989 17.162 58.469 18.318 58.732 18.235 59.101 16.832 58.788 16.782 58.497 16.497 59.324 16.385 58.749z"></path>
    <path fill="#FFC80A" fill-rule="nonzero" d="M70.084 11.33H29.609c-3.703 0-6.704 3.001-6.704 6.704V91.86c16.402 10.547 37.443 10.58 53.877.084V18.017c-.01-3.694-3.004-6.684-6.698-6.687z"></path>
    <path fill="#FFF" fill-rule="nonzero" d="M70.62 14.978h-5.257c-.8 0-1.506.527-1.732 1.296l-.229.765c-.256.862-1.05 1.452-1.95 1.447H37.917c-.915-.002-1.714-.618-1.95-1.503l-.173-.659c-.212-.794-.932-1.346-1.754-1.346h-5.335c-1.655-.003-3 1.334-3.006 2.988v75.581c14.88 8.236 32.927 8.332 47.894.257V17.966c-.006-1.641-1.33-2.973-2.972-2.988z"></path>
    <path fill="#F8FDFF" stroke="#DCECF3" stroke-width=".9" d="M70.056 93.693H29.274c-.575-.045-1.008-.542-.972-1.118V23.587c-.04-.282.035-.568.209-.794.173-.226.43-.373.712-.408h40.783c.284.012.551.137.743.346.192.21.293.488.279.772v68.989c.042.584-.39 1.094-.972 1.15"></path>
    <rect width="11.777" height="1" x="41.503" y="14.279" fill="#2B2D42" fill-rule="nonzero" opacity=".5" rx=".5"></rect>
    <rect width="2.24" height="1" x="55.106" y="14.279" fill="#2B2D42" fill-rule="nonzero" opacity=".5" rx=".5"></rect>
    <path fill="#ECF1F8" d="M67.34 67.196l-35.86-.23c-.186 0-.364-.074-.495-.206s-.204-.311-.203-.497l.034-6.972c-.009-.19.064-.374.2-.507.134-.134.32-.203.51-.192l35.86.19c.377.028.676.331.698.71l-.04 6.988c-.014.383-.32.69-.703.704"></path>
    <path fill="#FFF" d="M66.676 66.48l-35.257-.223c-.193.004-.378-.074-.51-.215-.132-.14-.199-.33-.183-.522l.034-6.967c-.008-.19.064-.374.2-.507.135-.133.32-.203.51-.191l35.256.19c.378.027.677.33.699.71l-.04 7c0 .185-.074.364-.206.495s-.311.204-.497.203"></path>
    <path fill="#BEC6D5" d="M45.251 60.57H33.648v-1.006h11.57l.033 1.006zm18.816 3.274l-30.318-.56v-1.273l30.318.559v1.274z"></path>
    <path fill="#ECF1F8" d="M67.34 78.704l-35.86-.23c-.186 0-.364-.073-.495-.206-.131-.132-.204-.31-.203-.497l.034-6.972c-.009-.19.064-.374.2-.507.134-.133.32-.203.51-.191l35.86.19c.377.027.676.33.698.709l-.04 7c-.01.384-.32.692-.703.704"></path>
    <path fill="#FFF" d="M66.676 77.96l-35.257-.223c-.188.004-.368-.07-.5-.205-.13-.134-.2-.317-.193-.504l.034-6.967c-.008-.19.064-.373.2-.506.135-.134.32-.203.51-.192l35.256.19c.378.028.677.331.699.71l-.04 7c0 .186-.074.364-.206.495s-.311.204-.497.203"></path>
    <path fill="#BEC6D5" d="M45.251 72.067H33.648v-1.006h11.57l.033 1.006zm18.816 3.274l-30.318-.559v-1.296l30.318.559v1.296z"></path>
    <path fill="#ECF1F8" d="M67.34 90.212l-35.86-.223c-.387-.006-.698-.322-.698-.71l.034-6.972c-.009-.19.064-.374.2-.507.134-.133.32-.202.51-.191l35.86.19c.377.027.676.331.698.71l-.04 7.005c-.014.382-.321.687-.703.698"></path>
    <path fill="#FFF" d="M66.676 89.47l-35.257-.224c-.187.003-.366-.07-.497-.204-.131-.133-.202-.314-.196-.5l.028-6.978c-.008-.19.064-.374.2-.507.135-.133.32-.202.51-.191l35.257.19c.378.027.677.331.698.71l-.04 7c0 .186-.073.364-.206.495-.132.131-.31.204-.497.203"></path>
    <path fill="#BEC6D5" d="M45.251 83.587H33.648V82.58h11.57l.033 1.006zm18.816 3.273l-30.318-.558v-1.296l30.318.558v1.296z"></path>
    <path fill="#FFC80A" fill-rule="nonzero" d="M49.346 28.106h-6.039s-.262 2.76-2.234 4.201c-1.047.818-2.256 1.4-3.548 1.71 0 0 .263 12.994 11.816 18.905h.072c11.553-5.91 11.816-18.905 11.816-18.905-1.29-.309-2.498-.892-3.542-1.71-1.972-1.441-2.234-4.2-2.234-4.2h-6.107z"></path>
    <path fill="#FFF" fill-rule="nonzero" d="M49.419 51.156h-.184c-10.006-5.134-10.347-16.469-10.352-16.58v-.146h.14c1.094-.275 2.12-.775 3.01-1.47 1.626-1.195 1.866-3.507 1.866-3.53v-.15h10.878v.15s.245 2.335 1.871 3.53c.89.693 1.916 1.188 3.011 1.453h.14v.146c0 .111-.346 11.447-10.358 16.564l-.022.033zM39.223 34.704c.073 1.296.928 11.385 10.123 16.134 9.196-4.732 10.056-14.821 10.123-16.117-1.088-.294-2.11-.796-3.005-1.48-1.52-1.118-1.905-3.062-1.99-3.62H44.213c-.078.558-.463 2.502-1.983 3.62-.898.677-1.919 1.174-3.006 1.463z"></path>
    <g fill="#2B2D42" fill-rule="nonzero" opacity=".5">
      <path d="M.464 4.47v4.424c.006 2.09 1.697 3.784 3.787 3.793h.822c2.09-.009 3.781-1.703 3.787-3.793V4.469H.464z" transform="translate(44.693 33.52)"></path>
      <path d="M2.66 4.47V3.05c.002-.999.81-1.81 1.81-1.815h.396c.485-.005.952.184 1.297.525s.54.805.54 1.29v1.42h1.034V2.904C7.731 1.39 6.504.163 4.99.156h-.62C2.853.163 1.626 1.39 1.62 2.905v1.564h1.04z" transform="translate(44.693 33.52)"></path>
    </g>
    <path fill="#FFF" fill-rule="nonzero" d="M53.553 37.324v4.425c-.006 2.089-1.698 3.781-3.788 3.787h-.82c-2.09-.006-3.782-1.698-3.789-3.787v-4.425h8.397zM47.352 37.318v-1.413c-.003-1.004.806-1.82 1.81-1.827h.397c.487-.004.955.186 1.3.53.346.343.54.81.538 1.297v1.413h1.033v-1.564c-.006-1.515-1.233-2.742-2.748-2.748h-.62c-1.516.006-2.743 1.233-2.75 2.748v1.564h1.04z"></path>
    <path fill="#2B2D42" fill-rule="nonzero" d="M50.28 43.23l-.487-2.146c.354-.226.516-.658.398-1.06-.117-.403-.487-.68-.906-.68-.42 0-.789.277-.906.68-.118.402.044.834.398 1.06l-.56 2.117 2.062.028z"></path>
  </g>
</svg>
