<?xml version="1.0" encoding="UTF-8"?>
<svg xmlns="http://www.w3.org/2000/svg" xmlns:xlink="http://www.w3.org/1999/xlink" width="160" height="160" viewBox="0 0 160 160">
  <defs>
    <path id="prefix__a" d="M0 0.225L33.246 0.225 33.246 12.611 0 12.611z"></path>
  </defs>
  <g fill="none" fill-rule="evenodd">
    <path d="M0 0H160V160H0z"></path>
    <g>
      <path fill="#FFC80A" d="M106.72 45.84c1.738-.121 2.542 1.057 1.786 2.62l-11.53 23.808c-.757 1.56-2.798 2.938-4.537 3.06L65.92 77.18c-1.739.122-2.543-1.057-1.787-2.618l11.53-23.808c.757-1.562 2.8-2.94 4.54-3.061l26.518-1.853z" transform="translate(16.64 16)"></path>
      <path fill="#BFD1D8" d="M106.72 45.84c1.738-.121 2.542 1.057 1.786 2.62l-11.53 23.808c-.757 1.56-2.798 2.938-4.537 3.06L65.92 77.18c-1.739.122-2.543-1.057-1.787-2.618l11.53-23.808c.757-1.562 2.8-2.94 4.54-3.061l26.518-1.853z" transform="translate(16.64 16)"></path>
      <path fill="#DCECF3" d="M106.341 43.43c.03.065.055.133.074.204.02.07.035.144.045.22.009.077.013.155.012.236-.001.082-.008.164-.02.25v.002c-.012.083-.03.168-.052.255 0 .004-.002.008-.003.011-.02.08-.047.163-.078.247l-.024.06c-.031.082-.065.163-.106.247L94.64 69.009c-.047.097-.1.193-.155.288-.057.096-.117.19-.183.283-.066.093-.135.185-.208.275h-.001c-.146.18-.309.355-.482.521v.001c-.262.25-.552.481-.858.688-.307.207-.63.388-.96.537-.11.05-.221.096-.331.138h-.002c-.111.043-.222.082-.333.116h-.002c-.109.034-.218.064-.326.09l-.015.002c-.078.018-.155.032-.233.046l-.105.02c-.105.015-.21.027-.312.035l-26.562 1.856c-.87.06-1.505-.207-1.824-.684l1.607 2.398c.32.478.954.744 1.824.683l26.562-1.856c.103-.007.207-.02.312-.035.035-.005.07-.013.104-.02.06-.01.118-.018.177-.032l.058-.012.013-.004.029-.007.1-.025.051-.014.051-.014.052-.015.045-.014h.002l.005-.002.05-.016.04-.013.034-.011.036-.012.036-.013.035-.012.035-.013.036-.014.026-.01.008-.002.027-.011.028-.01.028-.012.027-.011c.009-.004.018-.008.028-.01l.027-.013c.01-.003.019-.007.028-.012l.028-.011.027-.012.025-.01.023-.012c.008-.002.015-.006.023-.01L93.4 74l.018-.008.024-.01.023-.011.023-.011.023-.011.023-.011.023-.011.023-.012.022-.01.02-.01.02-.01.021-.011.02-.01.02-.01c.007-.005.014-.008.02-.011l.004-.002.017-.01.02-.01.02-.01.02-.01.02-.012.02-.011.02-.01.017-.011.019-.01.018-.01.018-.011.018-.01.019-.01c.005-.004.011-.008.018-.01l.017-.012.019-.01.017-.011.004-.002.015-.01.018-.01.017-.01.019-.011c.004-.004.01-.007.016-.01l.017-.01c.005-.005.011-.008.016-.011l.017-.011.017-.01.016-.011.017-.01.017-.012.016-.01.017-.011.016-.01.016-.012.017-.01.016-.011.012-.008.005-.003.016-.01c.005-.005.01-.008.016-.012l.015-.01.015-.011.016-.011.016-.011.015-.011.016-.011.015-.01.016-.012.015-.011.016-.011.015-.011.015-.012.016-.01.014-.012c.006-.003.01-.007.015-.011l.016-.011.014-.012c.001 0 .002 0 .003-.002l.012-.008.014-.012.016-.011.014-.012.016-.011.014-.012.015-.011.014-.012.015-.011.014-.012.014-.012.015-.011.014-.012.015-.012.014-.012.015-.011.013-.012.015-.012.014-.012.014-.012.014-.012.014-.012.014-.012.015-.013.013-.012.014-.012.014-.013.014-.012.014-.012.014-.013.014-.012.014-.013.014-.013.014-.013.014-.013.014-.012.013-.013.014-.013.013-.013.006-.005.008-.008.014-.013.013-.013.014-.013.013-.014.015-.013.014-.014.014-.015.013-.013.014-.014.014-.014.014-.015.013-.013.014-.014.013-.014.014-.014.013-.015c.004-.005.01-.009.013-.014l.012-.013.002-.002.014-.015.014-.016.014-.015.014-.016.014-.015.014-.016.014-.015.013-.016.015-.016.012-.016.015-.015.012-.017.014-.015.014-.017.015-.018.015-.018.006-.008h.001l.007-.01.015-.018.014-.018.015-.018.014-.018.014-.018.014-.019.014-.017.014-.02c.005-.006.01-.012.014-.02l.017-.021.016-.022.016-.021.015-.022.01-.013.005-.009.016-.022.015-.022.015-.022.014-.022.016-.024.019-.029.018-.028.018-.028.017-.03c.007-.009.012-.018.018-.028l.01-.018.001-.001.006-.01.016-.028.02-.033.023-.042.023-.042.022-.042.021-.042.022-.043.003-.006 11.549-23.848.033-.07.036-.082c.014-.031.025-.062.036-.093l.024-.062c.029-.077.054-.152.074-.227l.005-.02.002-.01.013-.05.016-.068.007-.04.007-.04.006-.041c.002-.005.002-.011.003-.016v-.003l.003-.02.005-.039.002-.027c.002-.008.002-.017.003-.026l.002-.027.002-.026.001-.026c0-.01 0-.019.002-.027V46.43v-.02l-.001-.02-.001-.02-.001-.02-.001-.02-.002-.019-.002-.02-.002-.016-.001-.016v-.007c-.002-.003-.002-.006-.002-.009l-.002-.016-.003-.016c0-.005-.001-.011-.003-.016 0-.005 0-.01-.002-.016l-.003-.015c0-.006-.002-.011-.003-.016l-.003-.015-.003-.017-.004-.014-.002-.013-.003-.014-.004-.013c0-.005-.002-.009-.004-.014l-.003-.013-.001-.003-.003-.01-.004-.013-.004-.013c0-.005-.002-.01-.003-.014l-.004-.012c-.003-.004-.004-.01-.005-.013l-.005-.014-.004-.011-.005-.012-.003-.012-.005-.011-.004-.012-.005-.011-.005-.012-.005-.011c-.002-.003-.004-.007-.004-.01l-.006-.012-.005-.012-.006-.01c0-.004-.003-.008-.005-.011l-.005-.011-.005-.01-.005-.01-.006-.011-.005-.01-.006-.01-.005-.01-.006-.01-.006-.01-.006-.01-.006-.01-.006-.01-.006-.009-.006-.01-.006-.009c-.002-.001-.002-.003-.003-.005l-1.608-2.397c.04.06.075.12.104.186" transform="translate(16.64 16)"></path>
      <path fill="#2B2D42" fill-opacity=".5" d="M105.029 52.176c-.362.72-.908 1.176-1.22 1.019-.312-.157-.271-.867.09-1.587.362-.72.908-1.175 1.22-1.018.312.156.271.867-.09 1.586M101.62 59.31c-.362.72-.908 1.175-1.22 1.018-.311-.157-.27-.867.09-1.586.362-.72.909-1.176 1.22-1.019.312.157.271.867-.09 1.587M97.69 67.465c-.362.72-.908 1.176-1.22 1.019-.311-.157-.272-.867.09-1.587s.908-1.175 1.22-1.019c.312.157.271.867-.09 1.587" transform="translate(16.64 16)"></path>
      <path fill="#FFC80A" d="M104.414 42.561c1.727-.12 2.527 1.05 1.775 2.6L94.64 69.01c-.75 1.55-2.779 2.919-4.505 3.04l-26.562 1.856c-1.728.12-2.528-1.05-1.777-2.6l11.55-23.849c.75-1.551 2.78-2.918 4.507-3.04l26.562-1.855z" transform="translate(16.64 16)"></path>
      <path fill="#FFF" d="M104.414 42.561c1.727-.12 2.527 1.05 1.775 2.6L94.64 69.01c-.75 1.55-2.779 2.919-4.505 3.04l-26.562 1.856c-1.728.12-2.528-1.05-1.777-2.6l11.55-23.849c.75-1.551 2.78-2.918 4.507-3.04l26.562-1.855z" transform="translate(16.64 16)"></path>
      <path fill="#FFEBB5" d="M90.14 63.899L87.965 63.759 87.319 62.802 92.652 53.594 94.328 52.46 94.973 53.417z" transform="translate(16.64 16)"></path>
      <path fill="#FFEBB5" d="M88.178 68.155L70.437 69.226 69.792 68.269 79.641 49.224 96.925 46.824 97.571 47.781 95.725 51.785 93.424 51.826 92.779 50.869 94.206 50.131 81.016 51.192 73.765 66.95 86.816 66.161 87.265 65.188 88.842 64.359 89.487 65.315z" transform="translate(16.64 16)"></path>
      <path fill="#FFEBB5" d="M90.042 53.946L90.979 51.788 90.334 50.83 82.245 52.516 76.367 62.425 77.012 63.383 79.234 63.235 81.24 59.211 84.852 58.855 85.815 56.677 85.17 55.72 82.332 57.022 83.598 54.483z" transform="translate(16.64 16)"></path>
      <path fill="#FFC80A" d="M90.14 63.899L87.965 63.759 87.319 62.802 92.652 53.594 94.328 52.46 94.973 53.417z" transform="translate(16.64 16)"></path>
      <path fill="#FFC80A" d="M88.178 68.155L70.437 69.226 69.792 68.269 79.641 49.224 96.925 46.824 97.571 47.781 95.725 51.785 93.424 51.826 92.779 50.869 94.206 50.131 81.016 51.192 73.765 66.95 86.816 66.161 87.265 65.188 88.842 64.359 89.487 65.315z" transform="translate(16.64 16)"></path>
      <path fill="#FFC80A" d="M90.042 53.946L90.979 51.788 90.334 50.83 82.245 52.516 76.367 62.425 77.012 63.383 79.234 63.235 81.24 59.211 84.852 58.855 85.815 56.677 85.17 55.72 82.332 57.022 83.598 54.483z" transform="translate(16.64 16)"></path>
      <g fill="#2B2D42" fill-opacity=".2">
        <path d="M20.75 17.414L18.575 17.275 17.93 16.318 23.263 7.11 24.938 5.976 25.583 6.932z" transform="translate(16.64 16) translate(69.39 46.484)"></path>
        <path d="M18.789 21.671L1.048 22.742 0.402 21.785 10.252 2.739 27.536 0.34 28.181 1.297 26.335 5.301 24.035 5.342 23.389 4.385 24.816 3.647 11.627 4.708 4.376 20.465 17.426 19.677 17.875 18.704 19.452 17.874 20.098 18.831z" transform="translate(16.64 16) translate(69.39 46.484)"></path>
        <path d="M20.652 7.461L21.589 5.304 20.944 4.346 12.856 6.032 6.977 15.941 7.623 16.898 9.844 16.751 11.851 12.727 15.462 12.371 16.426 10.193 15.78 9.236 12.943 10.537 14.209 7.999z" transform="translate(16.64 16) translate(69.39 46.484)"></path>
      </g>
      <path fill="#FFC80A" d="M89.495 62.942L87.319 62.802 92.007 52.637 94.328 52.46z" transform="translate(16.64 16)"></path>
      <path fill="#FFC80A" d="M87.533 67.198L69.792 68.269 78.996 48.267 96.925 46.824 95.079 50.828 92.779 50.869 93.56 49.174 80.371 50.235 73.12 65.993 86.17 65.204 86.619 64.231 88.842 64.358z" transform="translate(16.64 16)"></path>
      <path fill="#FFC80A" d="M89.396 52.989L90.334 50.831 81.6 51.559 76.367 62.426 78.589 62.278 80.595 58.254 84.206 57.898 85.17 55.72 81.687 56.065 82.953 53.526z" transform="translate(16.64 16)"></path>
      <path fill="#957A25" d="M44.931 118.179L28.512 118.383 29.552 100.339 45.971 100.134z" transform="translate(16.64 16)"></path>
      <path fill="#2B2D42" fill-opacity=".2" d="M32.78 110.073l-.477 8.263 9.643-.12.476-8.263c.186-3.216-1.823-5.795-4.486-5.762-2.663.033-4.972 2.666-5.157 5.882" transform="translate(16.64 16)"></path>
      <path fill="#FFC80A" d="M28.512 118.383L5.519 118.669 6.559 100.624 29.552 100.339z" transform="translate(16.64 16)"></path>
      <path fill="#2B2D42" fill-opacity=".2" d="M12.385 110.326l-.476 8.264 11.234-.14.476-8.264c.185-3.215-2.18-5.79-5.282-5.751-3.102.038-5.767 2.676-5.952 5.891" transform="translate(16.64 16)"></path>
      <path fill="#FFF" d="M30.433 100.328L3.749 100.66 3.934 97.446 30.618 97.114z" transform="translate(16.64 16)"></path>
      <path fill="#DCECF3" d="M6.95 118.651L4.089 118.687 4.229 116.251 7.091 116.215z" transform="translate(16.64 16)"></path>
      <path fill="#BFD1D8" d="M8.823 118.628L6.95 118.651 7.091 116.215 8.963 116.192z" transform="translate(16.64 16)"></path>
      <path fill="#FFF" d="M6.996 117.857L4.135 117.892 4.171 117.256 7.033 117.221z" transform="translate(16.64 16)"></path>
      <path fill="#DCECF3" d="M8.868 117.833L6.996 117.857 7.032 117.221 8.905 117.198z" transform="translate(16.64 16)"></path>
      <path fill="#FFF" d="M5.991 102.947L5.021 116.241 6.707 116.22 7.371 102.93z" transform="translate(16.64 16)"></path>
      <path fill="#BFD1D8" d="M8.304 116.2L6.707 116.22 7.371 102.93 8.802 102.912z" transform="translate(16.64 16)"></path>
      <path fill="#DCECF3" d="M7.882 102.923L5.507 102.953 5.639 100.636 8.015 100.606z" transform="translate(16.64 16)"></path>
      <path fill="#BFD1D8" d="M9.376 102.905L7.882 102.923 8.015 100.606 9.509 100.588z" transform="translate(16.64 16)"></path>
      <path fill="#BFD1D8" d="M6.004 100.631L7.934 102.017 8.015 100.607zM6.139 102.945L7.371 102.93 7.297 104.426z" transform="translate(16.64 16)"></path>
      <path fill="#DCECF3" d="M12.403 118.583L9.542 118.619 9.682 116.183 12.543 116.147z" transform="translate(16.64 16)"></path>
      <path fill="#BFD1D8" d="M14.275 118.56L12.403 118.583 12.543 116.147 14.416 116.124z" transform="translate(16.64 16)"></path>
      <path fill="#FFF" d="M12.449 117.789L9.587 117.825 9.624 117.189 12.485 117.154z" transform="translate(16.64 16)"></path>
      <path fill="#DCECF3" d="M14.321 117.766L12.449 117.789 12.485 117.153 14.358 117.13z" transform="translate(16.64 16)"></path>
      <path fill="#FFF" d="M11.444 102.879L10.474 116.173 12.16 116.152 12.824 102.862z" transform="translate(16.64 16)"></path>
      <path fill="#BFD1D8" d="M13.757 116.132L12.16 116.152 12.824 102.862 14.254 102.844z" transform="translate(16.64 16)"></path>
      <path fill="#DCECF3" d="M13.335 102.855L10.959 102.885 11.093 100.568 13.468 100.539z" transform="translate(16.64 16)"></path>
      <path fill="#BFD1D8" d="M14.829 102.837L13.335 102.855 13.468 100.538 14.962 100.52z" transform="translate(16.64 16)"></path>
      <path fill="#BFD1D8" d="M11.456 100.564L13.387 101.949 13.468 100.539zM11.591 102.877L12.824 102.862 12.749 104.358z" transform="translate(16.64 16)"></path>
      <path fill="#DCECF3" d="M20.569 118.482L17.708 118.517 17.849 116.081 20.71 116.046z" transform="translate(16.64 16)"></path>
      <path fill="#BFD1D8" d="M22.442 118.458L20.569 118.482 20.71 116.046 22.582 116.022z" transform="translate(16.64 16)"></path>
      <path fill="#FFF" d="M20.615 117.687L17.754 117.723 17.791 117.087 20.652 117.052z" transform="translate(16.64 16)"></path>
      <path fill="#DCECF3" d="M22.487 117.664L20.615 117.688 20.651 117.052 22.524 117.029z" transform="translate(16.64 16)"></path>
      <path fill="#FFF" d="M19.61 102.777L18.64 116.071 20.326 116.05 20.99 102.761z" transform="translate(16.64 16)"></path>
      <path fill="#BFD1D8" d="M21.923 116.031L20.326 116.05 20.99 102.761 22.421 102.742z" transform="translate(16.64 16)"></path>
      <path fill="#DCECF3" d="M21.501 102.754L19.126 102.783 19.259 100.467 21.634 100.438z" transform="translate(16.64 16)"></path>
      <path fill="#BFD1D8" d="M22.995 102.735L21.501 102.754 21.634 100.437 23.129 100.419zM19.623 100.462L21.553 101.847 21.634 100.437zM19.758 102.776L20.99 102.761 20.916 104.256z" transform="translate(16.64 16)"></path>
      <path fill="#DCECF3" d="M26.042 118.414L23.181 118.449 23.321 116.013 26.182 115.978z" transform="translate(16.64 16)"></path>
      <path fill="#BFD1D8" d="M27.914 118.39L26.042 118.414 26.182 115.978 28.055 115.954z" transform="translate(16.64 16)"></path>
      <path fill="#FFF" d="M26.087 117.619L23.226 117.655 23.263 117.019 26.124 116.984z" transform="translate(16.64 16)"></path>
      <path fill="#DCECF3" d="M27.96 117.596L26.087 117.619 26.124 116.984 27.997 116.961z" transform="translate(16.64 16)"></path>
      <path fill="#FFF" d="M25.083 102.709L24.113 116.003 25.799 115.982 26.463 102.693z" transform="translate(16.64 16)"></path>
      <path fill="#BFD1D8" d="M27.396 115.963L25.799 115.982 26.463 102.692 27.893 102.674z" transform="translate(16.64 16)"></path>
      <path fill="#DCECF3" d="M26.973 102.686L24.598 102.715 24.731 100.399 27.107 100.37z" transform="translate(16.64 16)"></path>
      <path fill="#BFD1D8" d="M28.468 102.667L26.973 102.686 27.107 100.369 28.601 100.351z" transform="translate(16.64 16)"></path>
      <path fill="#BFD1D8" d="M25.095 100.394L27.026 101.779 27.107 100.369zM25.23 102.707L26.463 102.693 26.388 104.188z" transform="translate(16.64 16)"></path>
      <path fill="#DCECF3" d="M33.635 118.319L30.773 118.355 30.914 115.919 33.775 115.883z" transform="translate(16.64 16)"></path>
      <path fill="#BFD1D8" d="M35.508 118.296L33.635 118.319 33.776 115.883 35.648 115.86z" transform="translate(16.64 16)"></path>
      <path fill="#FFF" d="M33.681 117.525L30.82 117.561 30.856 116.925 33.718 116.89z" transform="translate(16.64 16)"></path>
      <path fill="#DCECF3" d="M35.553 117.502L33.681 117.525 33.717 116.889 35.59 116.866z" transform="translate(16.64 16)"></path>
      <path fill="#FFF" d="M32.676 102.615L31.706 115.909 33.392 115.888 34.056 102.598z" transform="translate(16.64 16)"></path>
      <path fill="#BFD1D8" d="M34.989 115.868L33.392 115.888 34.056 102.598 35.486 102.58z" transform="translate(16.64 16)"></path>
      <path fill="#DCECF3" d="M34.567 102.591L32.191 102.621 32.324 100.304 34.7 100.275z" transform="translate(16.64 16)"></path>
      <path fill="#BFD1D8" d="M36.061 102.573L34.567 102.591 34.7 100.275 36.194 100.256zM32.689 100.3L34.619 101.685 34.7 100.275zM32.823 102.613L34.056 102.598 33.982 104.094z" transform="translate(16.64 16)"></path>
      <path fill="#DCECF3" d="M45.068 118.177L42.206 118.213 42.347 115.776 45.208 115.741z" transform="translate(16.64 16)"></path>
      <path fill="#BFD1D8" d="M46.94 118.154L45.068 118.177 45.208 115.741 47.08 115.718z" transform="translate(16.64 16)"></path>
      <path fill="#FFF" d="M45.113 117.383L42.252 117.418 42.289 116.782 45.15 116.747z" transform="translate(16.64 16)"></path>
      <path fill="#DCECF3" d="M46.986 117.359L45.113 117.383 45.15 116.747 47.022 116.724z" transform="translate(16.64 16)"></path>
      <path fill="#FFF" d="M44.109 102.473L43.139 115.767 44.824 115.746 45.489 102.455z" transform="translate(16.64 16)"></path>
      <path fill="#BFD1D8" d="M46.421 115.726L44.825 115.746 45.488 102.456 46.919 102.437z" transform="translate(16.64 16)"></path>
      <path fill="#DCECF3" d="M45.999 102.449L43.624 102.479 43.757 100.162 46.132 100.132z" transform="translate(16.64 16)"></path>
      <path fill="#BFD1D8" d="M47.493 102.431L45.999 102.449 46.132 100.132 47.627 100.114z" transform="translate(16.64 16)"></path>
      <path fill="#BFD1D8" d="M44.121 100.157L46.052 101.543 46.132 100.133zM44.256 102.471L45.489 102.455 45.414 103.952zM47.5 121.216L29.319 121.442 29.496 118.37 47.677 118.145z" transform="translate(16.64 16)"></path>
      <path fill="#BFD1D8" d="M48.911 124.267L29.844 124.504 30.021 121.433 49.088 121.196zM50.262 127.364L30.238 127.617 30.415 124.501 50.439 124.249z" transform="translate(16.64 16)"></path>
      <path fill="#DCECF3" d="M47.5 121.216L29.319 121.442 29.334 121.18 47.515 120.954zM48.911 124.267L29.844 124.504 29.859 124.242 48.926 124.005z" transform="translate(16.64 16)"></path>
      <path fill="#FFF" d="M29.371 121.407L3.859 121.724 4.036 118.653 29.548 118.336z" transform="translate(16.64 16)"></path>
      <path fill="#FFF" d="M29.895 124.47L1.973 124.817 2.15 121.746 30.072 121.398zM30.309 127.625L.121 128 .299 124.929 30.486 124.553z" transform="translate(16.64 16)"></path>
      <path fill="#DCECF3" d="M29.371 121.407L3.859 121.724 3.874 121.462 29.386 121.145zM29.895 124.47L1.973 124.817 1.988 124.555 29.91 124.208z" transform="translate(16.64 16)"></path>
      <path fill="#2B2D42" fill-opacity=".2" d="M43.296 121.004L35.003 121.108 35.165 118.3 43.457 118.197zM45.069 124.053L36.776 124.157 36.939 121.347 45.231 121.244z" transform="translate(16.64 16)"></path>
      <path fill="#BFD1D8" d="M49.427 100.092L30.406 100.328 30.591 97.115 49.612 96.878z" transform="translate(16.64 16)"></path>
      <path fill="#FFEBB5" d="M30.589 97.614L3.906 97.945 3.934 97.446 30.618 97.115z" transform="translate(16.64 16)"></path>
      <path fill="#FFC80A" d="M49.584 97.377L30.562 97.615 30.591 97.115 49.612 96.878z" transform="translate(16.64 16)"></path>
      <g transform="translate(16.64 16) translate(0 84.884)">
        <mask id="prefix__b" fill="#fff">
          <use xlink:href="#prefix__a"></use>
        </mask>
        <path fill="#FFC80A" d="M0.113 10.652L0 12.611 33.133 12.199 33.246 10.24 17.268 0.225z" mask="url(#prefix__b)"></path>
      </g>
      <path fill="#2B2D42" fill-opacity=".2" d="M3.374 95.654L17.3 87.014 18.336 87.637 5.417 95.629z" transform="translate(16.64 16)"></path>
      <path fill="#FFEBB5" d="M5.417 95.629L30.352 95.319 18.336 87.636z" transform="translate(16.64 16)"></path>
      <path fill="#957A25" d="M50.945 96.862L33.133 97.083 33.246 95.124 51.058 94.903z" transform="translate(16.64 16)"></path>
      <path fill="#FFC80A" d="M51.058 94.903L33.246 95.124 17.268 85.11 38.793 84.842z" transform="translate(16.64 16)"></path>
      <path fill="#2B2D42" fill-opacity=".2" d="M51.058 94.903L33.246 95.124 17.268 85.11 38.793 84.842zM49.427 100.092L30.406 100.328 30.591 97.115 49.612 96.878z" transform="translate(16.64 16)"></path>
      <path fill="#957A25" d="M83.168 117.545L66.748 117.749 67.788 99.705 84.207 99.501z" transform="translate(16.64 16)"></path>
      <path fill="#2B2D42" fill-opacity=".2" d="M71.016 109.439l-.477 8.263 9.643-.12.477-8.263c.185-3.215-1.823-5.794-4.486-5.761-2.663.033-4.972 2.666-5.157 5.881" transform="translate(16.64 16)"></path>
      <path fill="#FFC80A" d="M66.748 117.75L43.756 118.035 44.796 99.991 67.788 99.706z" transform="translate(16.64 16)"></path>
      <path fill="#2B2D42" fill-opacity=".2" d="M50.622 109.693l-.477 8.263 11.235-.14.476-8.263c.185-3.215-2.18-5.79-5.282-5.752-3.102.039-5.767 2.676-5.952 5.892" transform="translate(16.64 16)"></path>
      <path fill="#FFF" d="M68.67 99.695L41.986 100.027 42.171 96.813 68.855 96.481z" transform="translate(16.64 16)"></path>
      <path fill="#DCECF3" d="M45.187 118.018L42.325 118.053 42.466 115.617 45.327 115.582z" transform="translate(16.64 16)"></path>
      <path fill="#BFD1D8" d="M47.059 117.995L45.187 118.017 45.327 115.581 47.2 115.559z" transform="translate(16.64 16)"></path>
      <path fill="#FFF" d="M45.233 117.224L42.371 117.259 42.408 116.623 45.269 116.588z" transform="translate(16.64 16)"></path>
      <path fill="#DCECF3" d="M47.105 117.2L45.233 117.224 45.269 116.588 47.141 116.565z" transform="translate(16.64 16)"></path>
      <path fill="#FFF" d="M44.228 102.314L43.258 115.608 44.943 115.587 45.608 102.296z" transform="translate(16.64 16)"></path>
      <path fill="#BFD1D8" d="M46.541 115.567L44.944 115.587 45.607 102.296 47.038 102.278z" transform="translate(16.64 16)"></path>
      <path fill="#DCECF3" d="M46.118 102.29L43.743 102.32 43.876 100.003 46.252 99.973z" transform="translate(16.64 16)"></path>
      <path fill="#BFD1D8" d="M47.612 102.272L46.118 102.29 46.251 99.973 47.746 99.955z" transform="translate(16.64 16)"></path>
      <path fill="#BFD1D8" d="M44.24 99.998L46.171 101.383 46.252 99.973zM44.375 102.312L45.608 102.296 45.533 103.792z" transform="translate(16.64 16)"></path>
      <path fill="#DCECF3" d="M50.64 117.95L47.778 117.986 47.919 115.55 50.78 115.514z" transform="translate(16.64 16)"></path>
      <path fill="#BFD1D8" d="M52.512 117.927L50.64 117.95 50.78 115.514 52.652 115.49z" transform="translate(16.64 16)"></path>
      <path fill="#FFF" d="M50.685 117.155L47.824 117.191 47.861 116.556 50.722 116.52z" transform="translate(16.64 16)"></path>
      <path fill="#DCECF3" d="M52.558 117.132L50.686 117.155 50.722 116.52 52.595 116.497z" transform="translate(16.64 16)"></path>
      <path fill="#FFF" d="M49.681 102.246L48.711 115.539 50.397 115.519 51.06 102.229z" transform="translate(16.64 16)"></path>
      <path fill="#BFD1D8" d="M51.993 115.499L50.397 115.519 51.06 102.229 52.491 102.21z" transform="translate(16.64 16)"></path>
      <path fill="#DCECF3" d="M51.571 102.222L49.196 102.252 49.329 99.935 51.705 99.905z" transform="translate(16.64 16)"></path>
      <path fill="#BFD1D8" d="M53.066 102.203L51.571 102.222 51.705 99.906 53.199 99.887z" transform="translate(16.64 16)"></path>
      <path fill="#BFD1D8" d="M49.693 99.93L51.624 101.316 51.705 99.906zM49.828 102.244L51.06 102.228 50.986 103.725z" transform="translate(16.64 16)"></path>
      <path fill="#DCECF3" d="M58.806 117.848L55.945 117.884 56.085 115.448 58.946 115.412z" transform="translate(16.64 16)"></path>
      <path fill="#BFD1D8" d="M60.678 117.825L58.806 117.848 58.946 115.412 60.819 115.389z" transform="translate(16.64 16)"></path>
      <path fill="#FFF" d="M58.852 117.054L55.99 117.09 56.027 116.454 58.888 116.419z" transform="translate(16.64 16)"></path>
      <path fill="#DCECF3" d="M60.724 117.031L58.852 117.054 58.888 116.418 60.761 116.396z" transform="translate(16.64 16)"></path>
      <path fill="#FFF" d="M57.847 102.144L56.877 115.438 58.563 115.417 59.227 102.127z" transform="translate(16.64 16)"></path>
      <path fill="#BFD1D8" d="M60.16 115.397L58.563 115.417 59.227 102.127 60.657 102.109z" transform="translate(16.64 16)"></path>
      <path fill="#DCECF3" d="M59.738 102.121L57.362 102.15 57.495 99.833 59.871 99.804z" transform="translate(16.64 16)"></path>
      <path fill="#BFD1D8" d="M61.231 102.102L59.738 102.12 59.871 99.804 61.365 99.785zM57.86 99.829L59.79 101.214 59.871 99.804zM57.994 102.142L59.227 102.127 59.152 103.623z" transform="translate(16.64 16)"></path>
      <path fill="#DCECF3" d="M64.278 117.78L61.417 117.816 61.558 115.38 64.419 115.344z" transform="translate(16.64 16)"></path>
      <path fill="#BFD1D8" d="M66.151 117.757L64.278 117.781 64.419 115.344 66.291 115.321z" transform="translate(16.64 16)"></path>
      <path fill="#FFF" d="M64.324 116.986L61.463 117.022 61.5 116.386 64.361 116.351z" transform="translate(16.64 16)"></path>
      <path fill="#DCECF3" d="M66.196 116.963L64.324 116.986 64.361 116.35 66.234 116.327z" transform="translate(16.64 16)"></path>
      <path fill="#FFF" d="M63.32 102.076L62.349 115.37 64.035 115.349 64.699 102.059z" transform="translate(16.64 16)"></path>
      <path fill="#BFD1D8" d="M65.632 115.329L64.035 115.349 64.699 102.059 66.13 102.041z" transform="translate(16.64 16)"></path>
      <path fill="#DCECF3" d="M65.21 102.053L62.835 102.082 62.968 99.765 65.344 99.736z" transform="translate(16.64 16)"></path>
      <path fill="#BFD1D8" d="M66.704 102.034L65.21 102.052 65.344 99.735 66.838 99.717z" transform="translate(16.64 16)"></path>
      <path fill="#BFD1D8" d="M63.332 99.761L65.262 101.146 65.344 99.736zM63.467 102.074L64.699 102.059 64.625 103.555z" transform="translate(16.64 16)"></path>
      <path fill="#DCECF3" d="M71.871 117.686L69.01 117.721 69.15 115.285 72.012 115.25z" transform="translate(16.64 16)"></path>
      <path fill="#BFD1D8" d="M73.744 117.663L71.872 117.686 72.012 115.25 73.885 115.227z" transform="translate(16.64 16)"></path>
      <path fill="#FFF" d="M71.918 116.892L69.056 116.927 69.093 116.291 71.954 116.256z" transform="translate(16.64 16)"></path>
      <path fill="#DCECF3" d="M73.79 116.868L71.918 116.892 71.953 116.256 73.826 116.233z" transform="translate(16.64 16)"></path>
      <path fill="#FFF" d="M70.913 101.982L69.943 115.276 71.628 115.255 72.293 101.965z" transform="translate(16.64 16)"></path>
      <path fill="#BFD1D8" d="M73.225 115.235L71.629 115.255 72.292 101.965 73.723 101.946z" transform="translate(16.64 16)"></path>
      <path fill="#DCECF3" d="M72.803 101.958L70.428 101.988 70.561 99.671 72.936 99.641z" transform="translate(16.64 16)"></path>
      <path fill="#BFD1D8" d="M74.297 101.94L72.803 101.958 72.936 99.641 74.431 99.623z" transform="translate(16.64 16)"></path>
      <path fill="#BFD1D8" d="M70.925 99.666L72.856 101.051 72.936 99.641zM71.06 101.98L72.292 101.965 72.218 103.461z" transform="translate(16.64 16)"></path>
      <path fill="#DCECF3" d="M83.304 117.544L80.443 117.579 80.583 115.143 83.444 115.108z" transform="translate(16.64 16)"></path>
      <path fill="#BFD1D8" d="M85.177 117.52L83.304 117.544 83.445 115.108 85.317 115.084z" transform="translate(16.64 16)"></path>
      <path fill="#FFF" d="M83.35 116.749L80.489 116.785 80.525 116.15 83.387 116.114z" transform="translate(16.64 16)"></path>
      <path fill="#DCECF3" d="M85.222 116.726L83.35 116.749 83.386 116.114 85.259 116.091z" transform="translate(16.64 16)"></path>
      <path fill="#FFF" d="M82.345 101.839L81.375 115.133 83.061 115.113 83.725 101.823z" transform="translate(16.64 16)"></path>
      <path fill="#BFD1D8" d="M84.658 115.093L83.061 115.113 83.725 101.822 85.156 101.804z" transform="translate(16.64 16)"></path>
      <path fill="#DCECF3" d="M84.236 101.816L81.861 101.846 81.993 99.529 84.369 99.499z" transform="translate(16.64 16)"></path>
      <path fill="#BFD1D8" d="M85.73 101.797L84.236 101.816 84.369 99.499 85.863 99.481zM82.358 99.524L84.288 100.909 84.369 99.499zM82.492 101.838L83.725 101.822 83.651 103.318z" transform="translate(16.64 16)"></path>
      <path fill="#FFF" d="M67.556 120.809L42.044 121.126 42.221 118.055 67.733 117.737z" transform="translate(16.64 16)"></path>
      <path fill="#BFD1D8" d="M85.737 120.582L67.556 120.809 67.732 117.737 85.914 117.511z" transform="translate(16.64 16)"></path>
      <path fill="#FFF" d="M68.08 123.871L40.158 124.219 40.334 121.148 68.257 120.8z" transform="translate(16.64 16)"></path>
      <path fill="#BFD1D8" d="M87.148 123.634L68.08 123.871 68.257 120.8 87.325 120.563z" transform="translate(16.64 16)"></path>
      <path fill="#FFF" d="M68.494 127.026L38.063 127.663 38.483 124.33 68.671 123.955z" transform="translate(16.64 16)"></path>
      <path fill="#BFD1D8" d="M85.048 126.562c-.066.01-.132.015-.2.017l-16.373.357.177-3.072 20.564-.256-.394 2.91-3.774.044z" transform="translate(16.64 16)"></path>
      <path fill="#DCECF3" d="M85.737 120.582L67.556 120.809 67.571 120.547 85.751 120.32zM87.148 123.634L68.08 123.871 68.095 123.609 87.163 123.372z" transform="translate(16.64 16)"></path>
      <path fill="#DCECF3" d="M67.556 120.809L42.044 121.126 42.059 120.864 67.571 120.547zM68.08 123.871L40.158 124.219 40.173 123.957 68.095 123.609z" transform="translate(16.64 16)"></path>
      <path fill="#2B2D42" fill-opacity=".2" d="M81.532 120.371L73.239 120.474 73.401 117.667 81.694 117.564zM83.306 123.42L75.013 123.523 75.176 120.714 83.468 120.611zM84.185 126.589L76.753 126.73 76.924 123.775 84.353 123.682z" transform="translate(16.64 16)"></path>
      <path fill="#BFD1D8" d="M87.664 99.458L68.643 99.695 68.828 96.482 87.849 96.245z" transform="translate(16.64 16)"></path>
      <path fill="#FFEBB5" d="M68.826 96.98L42.142 97.313 42.171 96.813 68.855 96.481z" transform="translate(16.64 16)"></path>
      <path fill="#FFC80A" d="M87.82 96.744L68.799 96.981 68.828 96.482 87.849 96.245zM38.35 94.903L38.237 96.862 71.37 96.45 71.483 94.491 55.505 84.476z" transform="translate(16.64 16)"></path>
      <path fill="#2B2D42" fill-opacity=".2" d="M41.61 95.021L55.537 86.381 56.573 87.003 43.654 94.995z" transform="translate(16.64 16)"></path>
      <path fill="#FFEBB5" d="M43.654 94.996L68.588 94.686 56.573 87.003z" transform="translate(16.64 16)"></path>
      <path fill="#957A25" d="M89.182 96.229L71.37 96.45 71.483 94.49 89.294 94.269z" transform="translate(16.64 16)"></path>
      <path fill="#FFC80A" d="M89.294 94.269L71.483 94.491 55.505 84.477 77.029 84.209z" transform="translate(16.64 16)"></path>
      <path fill="#2B2D42" fill-opacity=".2" d="M89.294 94.269L71.483 94.491 55.505 84.477 77.029 84.209zM87.664 99.458L68.643 99.695 68.828 96.482 87.849 96.245z" transform="translate(16.64 16)"></path>
      <path fill="#957A25" d="M120.691 117.545L104.271 117.749 105.311 99.705 121.73 99.501z" transform="translate(16.64 16)"></path>
      <path fill="#2B2D42" fill-opacity=".2" d="M108.539 109.439l-.477 8.263 9.643-.12.477-8.263c.185-3.215-1.823-5.794-4.486-5.761-2.663.033-4.972 2.666-5.157 5.881" transform="translate(16.64 16)"></path>
      <path fill="#FFC80A" d="M104.271 117.75L81.279 118.035 82.319 99.991 105.311 99.706z" transform="translate(16.64 16)"></path>
      <path fill="#2B2D42" fill-opacity=".2" d="M88.145 109.693l-.477 8.263 11.235-.14.476-8.263c.185-3.215-2.18-5.79-5.282-5.752-3.102.039-5.767 2.676-5.952 5.892" transform="translate(16.64 16)"></path>
      <path fill="#FFF" d="M106.193 99.695L79.509 100.027 79.694 96.813 106.378 96.481z" transform="translate(16.64 16)"></path>
      <path fill="#DCECF3" d="M82.71 118.018L79.848 118.053 79.989 115.617 82.85 115.582z" transform="translate(16.64 16)"></path>
      <path fill="#BFD1D8" d="M84.582 117.995L82.71 118.017 82.85 115.581 84.723 115.559z" transform="translate(16.64 16)"></path>
      <path fill="#FFF" d="M82.756 117.224L79.894 117.259 79.931 116.623 82.792 116.588z" transform="translate(16.64 16)"></path>
      <path fill="#DCECF3" d="M84.628 117.2L82.756 117.224 82.792 116.588 84.664 116.565z" transform="translate(16.64 16)"></path>
      <path fill="#FFF" d="M81.751 102.314L80.781 115.608 82.467 115.587 83.131 102.296z" transform="translate(16.64 16)"></path>
      <path fill="#BFD1D8" d="M84.064 115.567L82.467 115.587 83.131 102.296 84.561 102.278z" transform="translate(16.64 16)"></path>
      <path fill="#DCECF3" d="M83.641 102.29L81.266 102.32 81.399 100.003 83.775 99.973z" transform="translate(16.64 16)"></path>
      <path fill="#BFD1D8" d="M85.135 102.272L83.641 102.29 83.774 99.973 85.269 99.955z" transform="translate(16.64 16)"></path>
      <path fill="#BFD1D8" d="M81.763 99.998L83.694 101.383 83.775 99.973zM81.898 102.312L83.131 102.296 83.056 103.792z" transform="translate(16.64 16)"></path>
      <path fill="#DCECF3" d="M88.163 117.95L85.301 117.986 85.442 115.55 88.303 115.514z" transform="translate(16.64 16)"></path>
      <path fill="#BFD1D8" d="M90.035 117.927L88.163 117.95 88.303 115.514 90.175 115.49z" transform="translate(16.64 16)"></path>
      <path fill="#FFF" d="M88.208 117.155L85.347 117.191 85.384 116.556 88.245 116.52z" transform="translate(16.64 16)"></path>
      <path fill="#DCECF3" d="M90.081 117.132L88.209 117.155 88.245 116.52 90.118 116.497z" transform="translate(16.64 16)"></path>
      <path fill="#FFF" d="M87.204 102.246L86.234 115.539 87.92 115.519 88.583 102.229z" transform="translate(16.64 16)"></path>
      <path fill="#BFD1D8" d="M89.516 115.499L87.92 115.519 88.583 102.229 90.014 102.21z" transform="translate(16.64 16)"></path>
      <path fill="#DCECF3" d="M89.094 102.222L86.719 102.252 86.852 99.935 89.228 99.905z" transform="translate(16.64 16)"></path>
      <path fill="#BFD1D8" d="M90.589 102.203L89.094 102.222 89.228 99.906 90.722 99.887z" transform="translate(16.64 16)"></path>
      <path fill="#BFD1D8" d="M87.216 99.93L89.147 101.316 89.228 99.906zM87.351 102.244L88.583 102.228 88.509 103.725z" transform="translate(16.64 16)"></path>
      <path fill="#DCECF3" d="M96.329 117.848L93.468 117.884 93.608 115.448 96.469 115.412z" transform="translate(16.64 16)"></path>
      <path fill="#BFD1D8" d="M98.201 117.825L96.329 117.848 96.469 115.412 98.342 115.389z" transform="translate(16.64 16)"></path>
      <path fill="#FFF" d="M96.375 117.054L93.513 117.09 93.55 116.454 96.411 116.419z" transform="translate(16.64 16)"></path>
      <path fill="#DCECF3" d="M98.247 117.031L96.375 117.054 96.411 116.418 98.284 116.396z" transform="translate(16.64 16)"></path>
      <path fill="#FFF" d="M95.37 102.144L94.4 115.438 96.086 115.417 96.75 102.127z" transform="translate(16.64 16)"></path>
      <path fill="#BFD1D8" d="M97.683 115.397L96.086 115.417 96.75 102.127 98.181 102.109z" transform="translate(16.64 16)"></path>
      <path fill="#DCECF3" d="M97.261 102.121L94.885 102.15 95.018 99.833 97.394 99.804z" transform="translate(16.64 16)"></path>
      <path fill="#BFD1D8" d="M98.754 102.102L97.261 102.12 97.394 99.804 98.888 99.785zM95.383 99.829L97.313 101.214 97.394 99.804zM95.517 102.142L96.75 102.127 96.675 103.623z" transform="translate(16.64 16)"></path>
      <path fill="#DCECF3" d="M101.801 117.78L98.94 117.816 99.081 115.38 101.942 115.344z" transform="translate(16.64 16)"></path>
      <path fill="#BFD1D8" d="M103.674 117.757L101.801 117.781 101.942 115.344 103.814 115.321z" transform="translate(16.64 16)"></path>
      <path fill="#FFF" d="M101.847 116.986L98.986 117.022 99.023 116.386 101.884 116.351z" transform="translate(16.64 16)"></path>
      <path fill="#DCECF3" d="M103.719 116.963L101.847 116.986 101.884 116.35 103.757 116.327z" transform="translate(16.64 16)"></path>
      <path fill="#FFF" d="M100.843 102.076L99.873 115.37 101.558 115.349 102.222 102.059z" transform="translate(16.64 16)"></path>
      <path fill="#BFD1D8" d="M103.155 115.329L101.558 115.349 102.222 102.059 103.653 102.041z" transform="translate(16.64 16)"></path>
      <path fill="#DCECF3" d="M102.733 102.053L100.358 102.082 100.491 99.765 102.867 99.736z" transform="translate(16.64 16)"></path>
      <path fill="#BFD1D8" d="M104.227 102.034L102.733 102.052 102.867 99.735 104.361 99.717z" transform="translate(16.64 16)"></path>
      <path fill="#BFD1D8" d="M100.855 99.761L102.785 101.146 102.867 99.736zM100.99 102.074L102.222 102.059 102.148 103.555z" transform="translate(16.64 16)"></path>
      <path fill="#DCECF3" d="M109.395 117.686L106.533 117.721 106.674 115.285 109.535 115.25z" transform="translate(16.64 16)"></path>
      <path fill="#BFD1D8" d="M111.267 117.663L109.395 117.686 109.535 115.25 111.408 115.227z" transform="translate(16.64 16)"></path>
      <path fill="#FFF" d="M109.441 116.892L106.579 116.927 106.616 116.291 109.477 116.256z" transform="translate(16.64 16)"></path>
      <path fill="#DCECF3" d="M111.313 116.868L109.441 116.892 109.476 116.256 111.349 116.233z" transform="translate(16.64 16)"></path>
      <path fill="#FFF" d="M108.436 101.982L107.466 115.276 109.151 115.255 109.816 101.965z" transform="translate(16.64 16)"></path>
      <path fill="#BFD1D8" d="M110.748 115.235L109.152 115.255 109.815 101.965 111.246 101.946z" transform="translate(16.64 16)"></path>
      <path fill="#DCECF3" d="M110.326 101.958L107.951 101.988 108.084 99.671 110.459 99.641z" transform="translate(16.64 16)"></path>
      <path fill="#BFD1D8" d="M111.82 101.94L110.326 101.958 110.459 99.641 111.954 99.623z" transform="translate(16.64 16)"></path>
      <path fill="#BFD1D8" d="M108.448 99.666L110.379 101.051 110.459 99.641zM108.583 101.98L109.816 101.965 109.741 103.461z" transform="translate(16.64 16)"></path>
      <path fill="#DCECF3" d="M120.827 117.544L117.966 117.579 118.106 115.143 120.968 115.108z" transform="translate(16.64 16)"></path>
      <path fill="#BFD1D8" d="M122.7 117.52L120.827 117.544 120.968 115.108 122.84 115.084z" transform="translate(16.64 16)"></path>
      <path fill="#FFF" d="M120.873 116.749L118.012 116.785 118.048 116.15 120.91 116.114z" transform="translate(16.64 16)"></path>
      <path fill="#DCECF3" d="M122.745 116.726L120.873 116.749 120.909 116.114 122.782 116.091z" transform="translate(16.64 16)"></path>
      <path fill="#FFF" d="M119.868 101.839L118.898 115.133 120.584 115.113 121.248 101.823z" transform="translate(16.64 16)"></path>
      <path fill="#BFD1D8" d="M122.181 115.093L120.584 115.113 121.248 101.822 122.679 101.804z" transform="translate(16.64 16)"></path>
      <path fill="#DCECF3" d="M121.759 101.816L119.384 101.846 119.517 99.529 121.892 99.499z" transform="translate(16.64 16)"></path>
      <path fill="#BFD1D8" d="M123.253 101.797L121.759 101.816 121.892 99.499 123.386 99.481zM119.881 99.524L121.811 100.909 121.892 99.499zM120.016 101.838L121.248 101.822 121.174 103.318z" transform="translate(16.64 16)"></path>
      <path fill="#FFF" d="M105.079 120.809L79.567 121.126 79.744 118.055 105.256 117.737z" transform="translate(16.64 16)"></path>
      <path fill="#BFD1D8" d="M123.26 120.582L105.079 120.809 105.255 117.737 123.437 117.511z" transform="translate(16.64 16)"></path>
      <path fill="#FFF" d="M105.603 123.871L77.681 124.219 77.857 121.148 105.78 120.8z" transform="translate(16.64 16)"></path>
      <path fill="#BFD1D8" d="M124.671 123.634L105.603 123.871 105.78 120.8 124.848 120.563z" transform="translate(16.64 16)"></path>
      <path fill="#FFF" d="M106.017 127.026L75.829 127.401 76.007 124.33 106.194 123.955z" transform="translate(16.64 16)"></path>
      <path fill="#BFD1D8" d="M122.57 126.562c-.065.01-.131.015-.199.017l-16.373.357.177-3.072 20.564-.256-.394 2.91-3.774.044z" transform="translate(16.64 16)"></path>
      <path fill="#DCECF3" d="M123.26 120.582L105.079 120.809 105.094 120.547 123.274 120.32zM124.671 123.634L105.603 123.871 105.618 123.609 124.686 123.372z" transform="translate(16.64 16)"></path>
      <path fill="#DCECF3" d="M105.079 120.809L79.567 121.126 79.582 120.864 105.094 120.547zM105.603 123.871L77.681 124.219 77.696 123.957 105.618 123.609z" transform="translate(16.64 16)"></path>
      <path fill="#2B2D42" fill-opacity=".2" d="M119.055 120.371L110.762 120.474 110.924 117.667 119.217 117.564zM120.829 123.42L112.536 123.523 112.699 120.714 120.991 120.611zM121.708 126.589L114.276 126.73 114.447 123.775 121.876 123.682z" transform="translate(16.64 16)"></path>
      <path fill="#BFD1D8" d="M125.187 99.458L106.166 99.695 106.351 96.482 125.372 96.245z" transform="translate(16.64 16)"></path>
      <path fill="#FFEBB5" d="M106.349 96.98L79.665 97.313 79.694 96.813 106.378 96.481z" transform="translate(16.64 16)"></path>
      <path fill="#FFC80A" d="M125.343 96.744L106.322 96.981 106.351 96.482 125.372 96.245zM75.873 94.903L75.76 96.862 108.893 96.45 109.006 94.491 93.028 84.476z" transform="translate(16.64 16)"></path>
      <path fill="#2B2D42" fill-opacity=".2" d="M79.133 95.021L93.06 86.381 94.096 87.003 81.177 94.995z" transform="translate(16.64 16)"></path>
      <path fill="#FFEBB5" d="M81.177 94.996L106.111 94.686 94.096 87.003z" transform="translate(16.64 16)"></path>
      <path fill="#957A25" d="M126.705 96.229L108.893 96.45 109.006 94.49 126.818 94.269z" transform="translate(16.64 16)"></path>
      <path fill="#FFC80A" d="M126.818 94.269L109.006 94.491 93.028 84.477 114.552 84.209z" transform="translate(16.64 16)"></path>
      <path fill="#2B2D42" fill-opacity=".2" d="M126.818 94.269L109.006 94.491 93.028 84.477 114.552 84.209zM125.187 99.458L106.166 99.695 106.351 96.482 125.372 96.245z" transform="translate(16.64 16)"></path>
      <path fill="#2B2D42" fill-opacity=".5" d="M111.175 88.327c.35.208.56.53.469.72-.09.19-.448.175-.798-.032-.351-.208-.56-.53-.47-.72.09-.19.448-.175.799.032" transform="translate(16.64 16)"></path>
      <path fill="#2B2D42" fill-opacity=".2" d="M111.285 88.096c.586.347.939.885.786 1.204-.152.317-.75.294-1.336-.054-.586-.347-.939-.886-.786-1.204.151-.318.75-.294 1.336.054" transform="translate(16.64 16)"></path>
      <path fill="#2B2D42" fill-opacity=".5" d="M74.12 89.046c-.09.19-.447.176-.797-.03-.351-.209-.56-.53-.47-.72.09-.19.448-.176.799.031.35.208.56.53.469.72z" transform="translate(16.64 16)"></path>
      <path fill="#2B2D42" fill-opacity=".2" d="M74.548 89.3c-.152.317-.75.294-1.336-.054-.586-.347-.939-.886-.786-1.204.151-.318.75-.294 1.336.054.586.347.939.885.786 1.204z" transform="translate(16.64 16)"></path>
      <path fill="#2B2D42" fill-opacity=".5" d="M34.674 89.046c-.091.19-.449.176-.798-.03-.351-.209-.56-.53-.47-.72.09-.19.448-.176.798.031.35.208.56.53.47.72z" transform="translate(16.64 16)"></path>
      <path fill="#2B2D42" fill-opacity=".2" d="M34.315 88.096c.587.347.939.885.786 1.204-.152.317-.75.294-1.336-.054-.587-.347-.939-.886-.787-1.204.152-.318.75-.294 1.337.054" transform="translate(16.64 16)"></path>
      <path fill="#FFC80A" d="M88.05.012c2.141-.16 3.14 1.286 2.218 3.215L69.032 47.66c-.923 1.93-3.43 3.64-5.572 3.802l-29.87 2.242c-2.142.16-3.142-1.286-2.219-3.217L52.607 6.054c.922-1.929 3.43-3.639 5.571-3.799L88.049.012z" transform="translate(16.64 16)"></path>
      <path fill="#FFC80A" d="M90.268 3.227L69.033 47.66c-.07.145-.152.29-.239.432-.025.043-.053.084-.08.125-.068.106-.14.21-.217.313l-.09.12c-.106.135-.217.27-.337.4l-.024.024c-.114.123-.234.242-.36.359-.038.038-.079.073-.119.11-.1.09-.2.176-.305.262l-.123.1c-.144.111-.29.22-.441.323l-.03.02c-.142.095-.287.185-.434.272l-.144.082c-.117.065-.235.128-.355.187-.047.023-.095.048-.142.07-.162.077-.326.15-.491.213l-.018.007c-.158.06-.318.113-.478.161l-.147.04c-.122.034-.244.063-.365.088l-.146.03c-.164.028-.327.052-.488.064l-29.87 2.242c-1.078.08-1.866-.245-2.266-.835l1.818 2.682c.4.59 1.188.916 2.265.835l29.87-2.242c.162-.012.325-.036.489-.065l.146-.03c.121-.024.243-.053.365-.086l.147-.041c.16-.048.32-.1.477-.161l.019-.007c.165-.064.328-.136.49-.212.05-.023.096-.048.144-.071.119-.06.237-.122.355-.187l.142-.082c.148-.087.293-.177.435-.273l.03-.02c.151-.102.297-.21.44-.323l.123-.1c.105-.085.207-.172.306-.261.025-.023.05-.043.075-.065.016-.014.03-.03.046-.045.123-.117.244-.236.358-.36l.023-.023c.12-.13.232-.265.338-.4l.09-.12c.076-.103.149-.208.217-.313.027-.041.054-.082.08-.125.087-.143.168-.287.239-.432L92.086 5.909c.286-.6.387-1.152.326-1.624-.036-.283-.13-.537-.278-.756L90.314.847c.395.583.412 1.422-.046 2.38" transform="translate(16.64 16)"></path>
      <path fill="#FFF" d="M82.89 2.822c2.145-.16 3.143 1.286 2.222 3.214L69.78 38.12c-.922 1.929-3.43 3.639-5.574 3.8l-22.728 1.706c-2.14.161-3.14-1.286-2.218-3.215L54.592 8.328c.922-1.928 3.43-3.639 5.572-3.8L82.89 2.822z" transform="translate(16.64 16)"></path>
      <path fill="#DCECF3" d="M85.257 3.83c.019.039.038.077.055.118.016.041.033.084.046.128.014.041.026.084.037.128.012.044.02.09.028.136.009.048.015.095.02.145.004.047.007.095.007.144.002.05.002.103-.001.155-.001.045-.005.09-.01.136-.009.091-.024.186-.043.281-.008.035-.012.068-.02.103-.031.13-.072.263-.123.399-.04.11-.087.22-.14.333L69.777 38.12c-.062.13-.132.258-.208.386-.024.041-.052.082-.079.123-.053.085-.108.17-.168.254-.034.048-.071.095-.107.143-.057.075-.115.15-.177.225-.04.048-.082.096-.125.145-.063.07-.127.14-.193.21-.041.044-.084.087-.126.13-.11.11-.225.217-.342.321-.02.018-.04.038-.062.055-.139.12-.283.235-.43.347l-.17.122c-.066.047-.133.095-.2.14l-.186.119c-.069.043-.137.087-.208.128-.067.04-.135.077-.202.115-.063.035-.126.07-.189.103l-.209.103c-.064.03-.128.062-.192.09-.063.029-.127.054-.19.08-.08.034-.16.067-.24.097-.064.024-.128.045-.192.067-.08.027-.158.053-.237.077l-.171.047c-.116.03-.23.058-.346.08-.05.01-.1.022-.148.03-.16.029-.32.05-.477.063l-22.726 1.706c-1.078.08-1.866-.246-2.267-.835l.364.536c.4.59 1.189.916 2.266.835l22.727-1.706c.157-.012.317-.034.476-.062.05-.009.1-.02.149-.03.115-.023.23-.05.345-.08l.088-.021c.027-.008.055-.02.083-.027.08-.024.159-.05.238-.077.064-.022.128-.043.192-.067.08-.03.159-.062.239-.095.043-.02.087-.034.132-.053.02-.009.039-.02.059-.028l.191-.091c.07-.034.14-.067.21-.103.063-.033.126-.068.189-.103.045-.025.092-.048.138-.075l.064-.04c.07-.04.14-.084.208-.128l.185-.118c.068-.046.135-.094.201-.141l.13-.091.039-.031c.148-.112.292-.226.431-.346l.06-.055c.12-.104.233-.211.344-.322l.055-.052c.025-.025.046-.052.07-.077.067-.07.131-.14.194-.212l.125-.144c.062-.074.12-.15.177-.225l.107-.143c.06-.083.114-.168.168-.254.026-.04.054-.081.08-.123.075-.127.145-.256.207-.385L85.475 6.573c.052-.108.098-.215.137-.32l.005-.014c.051-.136.09-.269.122-.399.01-.034.013-.069.02-.103.02-.096.035-.19.044-.281.002-.02.008-.041.01-.061.001-.026-.002-.05 0-.074.002-.053.003-.105.001-.156-.001-.049-.004-.096-.008-.143-.005-.05-.01-.098-.02-.146-.003-.024-.004-.05-.009-.073-.004-.022-.013-.042-.018-.063-.01-.044-.023-.086-.037-.128-.014-.044-.03-.086-.047-.128-.016-.04-.035-.079-.055-.118-.01-.02-.017-.042-.029-.061-.02-.038-.044-.075-.068-.11l-.364-.537c.037.055.068.113.098.172" transform="translate(16.64 16)"></path>
      <path fill="#FBF0CB" d="M53.358 45.551l.003.006c.048.072.084.151.112.236l.01.025c.02.069.032.141.04.217l.002.055c.003.061.002.123-.004.188l-.004.046c-.01.08-.027.163-.05.247l-.017.054c-.03.095-.066.193-.113.294l-.01.024c-.06.126-.135.249-.217.37-.02.028-.038.057-.058.084-.074.105-.157.209-.246.308-.017.018-.03.038-.048.056-.106.115-.22.225-.34.33l-.082.067c-.099.083-.202.161-.308.236-.03.021-.06.044-.091.064-.105.07-.213.133-.321.194-.04.023-.077.048-.117.069-.14.072-.283.137-.426.194-.035.014-.07.024-.105.037-.112.041-.224.076-.335.105-.043.012-.085.023-.128.033-.144.031-.287.057-.428.068-.053.004-.102.003-.153.004-.034 0-.069.002-.102 0-.039 0-.075-.004-.113-.007-.032-.003-.064-.005-.094-.009-.036-.004-.07-.011-.105-.018-.029-.006-.058-.01-.085-.017-.034-.009-.065-.02-.097-.03-.025-.008-.052-.015-.075-.024-.032-.012-.06-.027-.09-.04-.021-.012-.044-.021-.064-.032-.03-.017-.056-.035-.083-.053-.018-.012-.037-.023-.053-.036-.028-.021-.053-.045-.079-.07-.011-.011-.026-.022-.037-.034-.036-.038-.068-.078-.097-.12l.364.537c.028.042.06.081.096.12l.038.034c.026.024.05.048.078.07.017.012.036.022.054.035.027.018.053.037.082.054l.064.03c.03.014.058.029.09.04.024.01.05.017.075.025.032.011.064.022.097.03.028.007.057.012.086.017.034.007.069.014.104.019.03.004.063.006.095.008.037.004.074.007.112.008h.103l.087-.001.066-.004c.113-.009.229-.024.345-.047.028-.006.055-.015.083-.021.042-.01.084-.02.127-.032.049-.013.098-.022.147-.037.063-.02.126-.046.189-.068.035-.013.07-.024.104-.038l.052-.018c.12-.05.239-.105.357-.165l.017-.011c.04-.021.078-.046.116-.068.09-.05.182-.1.269-.156.018-.012.035-.026.054-.038.03-.02.06-.043.09-.064.107-.075.21-.154.308-.236l.082-.067.044-.037c.105-.093.204-.192.297-.294.017-.018.03-.037.047-.055.067-.076.133-.15.193-.23.02-.025.035-.052.054-.078.02-.028.04-.056.058-.084.081-.122.157-.245.216-.371l.006-.01.005-.014c.047-.1.083-.198.113-.294l.012-.033.004-.021c.024-.084.041-.166.05-.247l.003-.012v-.033c.007-.065.009-.127.006-.188 0-.011.002-.023 0-.035l-.003-.021c-.007-.076-.02-.148-.04-.216l-.001-.01-.008-.016c-.028-.084-.064-.164-.112-.236l-.002-.003-.002-.002-.237-.352-.124-.182-.002-.003z" transform="translate(16.64 16)"></path>
      <path fill="#FFF" d="M52.032 45.067c1.256-.095 1.836.744 1.295 1.876-.54 1.128-1.994 2.12-3.25 2.214-1.257.095-1.836-.744-1.296-1.873.54-1.131 1.995-2.123 3.251-2.217" transform="translate(16.64 16)"></path>
      <path fill="#2B2D42" fill-opacity=".2" d="M90.268 3.227L69.033 47.66c-.07.145-.152.29-.239.432-.025.043-.053.084-.08.125-.068.106-.14.21-.217.313l-.09.12c-.106.135-.217.27-.337.4l-.024.024c-.114.123-.234.242-.36.359-.038.038-.079.073-.119.11-.1.09-.2.176-.305.262l-.123.1c-.144.111-.29.22-.441.323l-.03.02c-.142.095-.287.185-.434.272l-.144.082c-.117.065-.235.128-.355.187-.047.023-.095.048-.142.07-.162.077-.326.15-.491.213l-.018.007c-.158.06-.318.113-.478.161l-.147.04c-.122.034-.244.063-.365.088l-.146.03c-.164.028-.327.052-.488.064l-29.87 2.242c-1.078.08-1.866-.245-2.266-.835l1.818 2.682c.4.59 1.188.916 2.265.835l29.87-2.242c.162-.012.325-.036.489-.065l.146-.03c.121-.024.243-.053.365-.086l.147-.041c.16-.048.32-.1.477-.161l.019-.007c.165-.064.328-.136.49-.212.05-.023.096-.048.144-.071.119-.06.237-.122.355-.187l.142-.082c.148-.087.293-.177.435-.273l.03-.02c.151-.102.297-.21.44-.323l.123-.1c.105-.085.207-.172.306-.261.025-.023.05-.043.075-.065.016-.014.03-.03.046-.045.123-.117.244-.236.358-.36l.023-.023c.12-.13.232-.265.338-.4l.09-.12c.076-.103.149-.208.217-.313.027-.041.054-.082.08-.125.087-.143.168-.287.239-.432L92.086 5.909c.286-.6.387-1.152.326-1.624-.036-.283-.13-.537-.278-.756L90.314.847c.395.583.412 1.422-.046 2.38" transform="translate(16.64 16)"></path>
      <path fill="#BFD1D8" d="M47.011 35.628l1.22 1.787c.433.636 1.174.989 1.94.925l13.625-1.137c1.256-.104 2.358-.88 2.878-2.029l9.615-21.192c.316-.698.245-1.509-.186-2.14l-1.52-2.224-27.572 26.01z" transform="translate(16.64 16)"></path>
      <path fill="#DCECF3" d="M58.875 10.502l14.292-1.23c1.46-.125 2.517 1.363 1.918 2.7L65.675 33c-.622 1.387-1.953 2.323-3.469 2.438l-13.462 1.024c-1.47.11-2.512-1.404-1.883-2.737l10.44-22.13c.293-.618.891-1.035 1.574-1.094" transform="translate(16.64 16)"></path>
      <path fill="#BFD1D8" d="M65.025 29.11l3.422 1.254-1.178 2.769c-.62 1.458-2.003 2.449-3.583 2.565l-13.674 1.01c-1.303.096-2.236-1.232-1.705-2.425l2.014-4.517 6.657-1.298c.723-.14 1.332-.627 1.63-1.301l.114-.256.479-1.183c-1.74-.877-.81-4.288-.81-4.288s-.729-.467-.513-1.069c.214-.602 1.004-.569 1.004-.569s.993-3.73 2.687-4.938c1.695-1.208 3.078-1.222 4.241-.694 1.164.529 1.504 1.814 1.454 2.08-.05.267 1.466.727 1.244 2.456l-1.089 2.91c.453.046.715.535.504.938l-.09.17c-.126.238-.388.373-.656.336l-.656-.09s-1.054 2.557-2.823 2.972c-1.77.414-.688.15-.688.15l.28 1.24c.197.873.868 1.56 1.735 1.777" transform="translate(16.64 16)"></path>
      <path fill="#FFF" d="M63.572 28.815l3.575.896-1.33 3.127c-.62 1.459-2.004 2.448-3.584 2.566l-13.675 1.01c-1.302.096-2.236-1.233-1.703-2.426l2.013-4.516 6.657-1.298c.724-.142 1.333-.628 1.631-1.302l.112-.256.48-1.184c-1.74-.875-.81-4.286-.81-4.286s-.729-.468-.514-1.07c.215-.6 1.005-.568 1.005-.568s.994-3.73 2.688-4.939c1.694-1.208 3.077-1.222 4.24-.694 1.164.529 1.504 1.815 1.454 2.081-.05.267 1.466.727 1.245 2.455l-1.09 2.91c.453.046.715.535.504.938l-.09.17c-.126.239-.387.373-.655.337l-.657-.09s-1.053 2.557-2.823 2.971c-1.77.415-.687.15-.687.15l.279 1.24c.196.873.868 1.56 1.735 1.778" transform="translate(16.64 16)"></path>
      <path fill="#2B2D42" fill-opacity=".5" d="M47.82 54.117c-.035-.474.823-.925 1.917-1.007 1.094-.082 2.01.236 2.045.71.036.474-.822.925-1.916 1.007-1.094.082-2.01-.236-2.046-.71zM79.776 28.432c-.425-.214-.37-1.182.125-2.161.493-.98 1.238-1.6 1.663-1.387.424.214.368 1.181-.125 2.162-.494.98-1.239 1.6-1.663 1.386z" transform="translate(16.64 16)"></path>
      <path fill="#2B2D42" fill-opacity=".2" d="M78.81 55.336c-.025.042-.052.084-.08.126-.017.026-.036.05-.052.076.139-.207.268-.419.37-.633-.07.145-.15.29-.237.431zm-.296.438l-.09.12c-.101.13-.209.256-.322.38.171-.186.324-.382.468-.58-.02.026-.037.054-.056.08zm-.428.52l-.024.025c-.113.122-.234.241-.359.359-.039.037-.08.073-.12.109l-.07.06c.202-.177.397-.361.574-.554v.001zm-.808.755c-.041.033-.081.067-.124.099-.135.107-.274.21-.417.308.217-.15.424-.311.625-.48-.028.024-.055.05-.084.073zm-.564.424l-.03.018c-.141.096-.287.187-.434.273-.048.029-.095.055-.144.082l-.083.044c.235-.128.47-.266.693-.42 0 .001 0 .002-.002.003zm-.962.56c-.047.024-.095.048-.142.07-.16.076-.32.146-.481.209.243-.094.481-.207.718-.329l-.095.05zm-.633.284c-.007.002-.013.003-.019.006-.159.06-.318.114-.477.161-.05.015-.098.027-.148.04-.029.009-.058.014-.089.022.245-.062.49-.136.734-.23zm-1.009.295l-.146.03c-.163.028-.327.052-.487.064.239-.018.482-.062.727-.116-.031.006-.063.016-.094.022zm3.743-14.195c-1.729.12-3.757 1.488-4.508 3.04L66.27 62.064l9.024-.678c.161-.012.324-.035.488-.064.049-.008.097-.02.146-.029.122-.025.243-.054.365-.087.05-.014.098-.026.147-.041.16-.047.319-.1.478-.161l.018-.007c.165-.063.329-.135.491-.213.048-.022.095-.046.143-.07.12-.06.237-.122.354-.187.049-.027.097-.054.144-.082.147-.087.293-.177.434-.273.01-.006.02-.012.03-.02.152-.102.297-.21.44-.323.043-.033.082-.066.124-.1.104-.085.206-.172.305-.261.024-.022.051-.042.076-.065.016-.014.029-.03.045-.045.124-.117.244-.236.359-.36l.023-.022c.12-.131.231-.265.338-.402l.089-.118c.077-.104.15-.208.217-.313.027-.042.055-.083.08-.126.087-.143.169-.286.239-.432l6.615-13.842-9.629.673z" transform="translate(16.64 16)"></path>
      <path fill="#2B2D42" fill-opacity=".3" d="M100.136 90.722c1.739-.122 3.781-1.5 4.537-3.06l1.597-3.3-13.242.114-9.033 5.447-6.966-5.714-6.395.13-1.141 2.359c-.375.772-.363 1.45-.044 1.922 0-.002-.003-.003-.004-.004l1.607 2.397.052.092c.51.908 1.471 1.47 2.513 1.47l26.52-1.853z" transform="translate(16.64 16)"></path>
      <path fill="#2B2D42" d="M112.418 26.198l-.011-.48.481-.012.011.481-.48.011zm-.962.021l-.01-.48.481-.012.01.481-.48.011zm-.961.022l-.012-.481.481-.011.01.48-.48.012zm-.962.02l-.011-.48.48-.011.011.48-.48.012zm-.962.022l-.011-.48.48-.012.011.481-.48.011zm-.963.021l-.01-.481.481-.01.01.48-.48.011zm6.14.005c-.13-.054-.267-.09-.408-.109l.066-.477c.18.025.355.072.521.14l-.18.446zm-7.101.017l-.011-.481.48-.012.011.482-.48.01zm-.962.02l-.011-.48.48-.011.012.48-.481.011zm-.962.022l-.01-.481.48-.011.011.481-.481.011zm-.962.02l-.01-.48.48-.01.011.48-.481.01zm-.962.022l-.01-.48.48-.011.01.48-.48.011zm-.962.021l-.01-.48.48-.011.011.481-.48.01zm-.962.022l-.01-.481.48-.01.011.48-.48.01zm-.962.02l-.01-.48.48-.011.011.482-.48.01zm-.962.022l-.01-.48.48-.011.012.48-.482.011zm-.962.021l-.01-.48.481-.012.01.482-.48.01zm-.962.022l-.01-.481.482-.011.01.481-.482.01zm-.961.02l-.011-.48.482-.011.01.482-.481.01zm-.962.022l-.011-.48.481-.012.01.481-.48.011zm-.962.022l-.011-.482.481-.01.01.481-.48.01zm-.962.02l-.01-.48.48-.011.01.48-.48.012zm-.962.022l-.011-.481.482-.011.01.481-.481.011zm-.962.021l-.011-.48.482-.012.01.481-.48.011zm-.962.022l-.01-.482.48-.01.011.48-.48.012zm-.962.02l-.01-.48.481-.011.01.48-.48.012zm-.961.022l-.011-.482.481-.01.011.48-.481.012zm-.962.021l-.01-.481.48-.01.01.48-.48.011zm-.962.022l-.01-.482.48-.01.01.48-.48.012zm-.962.02l-.01-.48.48-.011.01.481-.48.01zm28.939.01c-.091-.11-.195-.206-.309-.29l.283-.388c.146.106.278.23.394.367l-.368.31zm-29.901.012l-.01-.482.48-.01.01.48-.48.012zm-.962.02l-.01-.48.48-.01.01.48-.48.01zm-.962.022l-.01-.481.48-.011.012.482-.482.01zm-.961.021l-.011-.48.48-.011.012.481-.481.01zm-.962.022l-.011-.482.48-.01.012.481-.481.01zm34.12.652c-.03-.136-.077-.27-.14-.397l.43-.214c.08.163.141.334.18.509l-.47.102zm.437.965l-.462-.131c.038-.135.06-.276.064-.415l.48.013c-.005.18-.032.36-.082.533zm-.387.92l-.438-.199.198-.438.438.198-.198.438zm-.394.876l-.44-.198.197-.438.44.198-.197.438zm-.395.878l-.44-.198.197-.438.44.197-.197.439zm-.395.877l-.44-.198.197-.439.44.198-.197.439zm-.396.877l-.44-.198.198-.439.439.198-.197.439zm-.395.877l-.439-.197.197-.439.44.197-.198.439zm-.396.877l-.439-.197.198-.439.439.198-.198.438zm-.396.877l-.438-.198.198-.438.438.198-.198.438zm-.394.877l-.44-.197.198-.439.439.198-.197.438zm-.397.878l-.437-.199.198-.437.437.198-.198.438zm-.394.877l-.439-.198.197-.438.44.197-.198.439zm-.396.877l-.438-.198.199-.438.437.198-.198.438zm-.394.878l-.44-.198.198-.439.44.197-.198.44zm-.395.877l-.44-.198.198-.438.439.197-.197.439zm-.395.876l-.44-.197.198-.439.44.198-.198.438zm-.396.877l-.44-.197.198-.438.44.197-.198.438zm-.394.878l-.44-.197.197-.439.44.198-.197.438zm-.397.877l-.439-.197.198-.439.44.198-.199.438zm-.396.878l-.437-.198.198-.44.437.199-.198.44zm-.394.877l-.439-.198.198-.438.439.197-.198.439zm-.396.877l-.438-.198.199-.439.437.199-.198.438zm-.394.877l-.44-.198.198-.438.44.197-.198.439zm-.396.877l-.439-.197.198-.439.438.197-.197.439zm-.395.877l-.438-.197.197-.438.438.197-.197.438zm-.395.878l-.44-.197.198-.439.439.197-.197.439zm-.395.877l-.44-.198.198-.438.44.197-.198.44zm-.282.626l-.44-.197.085-.188.44.197-.085.188zM101.055 59.267h.481v-.481h-.48v.48zm.962 0h.481v-.481h-.481v.48zm.963 0h.481v-.481h-.481v.48zm.962 0h.481v-.481h-.48v.48zm.962 0h.48v-.481h-.48v.48zm.962 0h.481v-.481h-.48v.48zm.963 0h.48v-.481h-.48v.48zm.961 0h.481v-.481h-.48v.48zm.962 0h.481v-.481h-.48v.48zm.963 0h.48v-.481h-.48v.48zm.962 0h.48v-.481h-.48v.48zm.962 0h.48v-.481h-.48v.48zm.962 0h.48v-.481h-.48v.48zm.963 0h.48v-.481h-.48v.48zm.962 0h.48v-.481h-.48v.48zm.961 0h.481v-.481h-.481v.48zm.963 0h.48v-.481h-.48v.48zm.962 0h.48v-.481h-.48v.48zm.962 0h.48v-.481h-.48v.48zm.962 0h.48v-.481h-.48v.48zm1.433 0h-.47v-.481l.491.001-.021.48zm.642.34c-.076-.1-.173-.185-.284-.243l.224-.425c.172.091.325.221.443.377l-.383.29zm.617.82l-.467-.11c.015-.067.024-.133.024-.197 0-.058-.008-.117-.02-.175l.472-.1c.018.091.028.184.028.275 0 .1-.012.204-.037.307zm-.349.93l-.45-.17.17-.45.45.17-.17.45zm-.341.9l-.45-.17.171-.451.45.17-.171.45zm-.34.899l-.451-.17.17-.45.45.17-.17.45zm-.342.9l-.45-.17.171-.45.45.17-.17.45zm-.341.9l-.45-.171.17-.45.45.17-.17.45zm-.34.9l-.45-.171.17-.45.45.17-.17.45zm-.342.9l-.45-.172.17-.45.45.171-.17.45zm-.341.899l-.45-.17.171-.45.45.17-.171.45zm-.34.9l-.45-.171.17-.45.45.17-.17.45zm-.342.898l-.45-.17.17-.45.45.171-.17.45zm-.341.9l-.45-.17.17-.45.45.17-.17.45zm-.341.9l-.45-.17.17-.45.45.17-.17.45zm-.341.9l-.45-.17.17-.45.45.17-.17.45zm-.342.9l-.45-.171.171-.45.45.17-.17.45zm-.34.899l-.45-.17.17-.45.45.17-.17.45zm-.341.9l-.45-.17.17-.45.45.17-.17.45zm-.342.9l-.45-.171.171-.45.45.17-.171.45zm-.34.9l-.45-.171.17-.45.45.17-.17.45zm-.341.9l-.45-.172.17-.45.45.171-.17.45zm-.342.899l-.45-.17.171-.45.45.17-.17.45zm-.34.899l-.45-.17.17-.45.45.17-.17.45zm-.341.9l-.45-.17.17-.45.45.17-.17.45zm-.342.9l-.45-.172.171-.45.45.172-.171.45zm-.34.9l-.45-.172.17-.45.45.171-.17.45zm-.342.899l-.45-.17.17-.45.45.17-.17.45zm-.34.9l-.45-.17.17-.45.45.17-.17.45zm-.342.9l-.45-.171.17-.45.45.17-.17.45zm-.341.898l-.45-.17.17-.45.45.17-.17.45zm-.342.9l-.45-.17.171-.45.45.17-.17.45zm-.34.9l-.45-.17.17-.45.45.17-.17.45zm-.279.734l-.45-.17.108-.285.45.17-.108.285zM49.898 55.364l-.442-.19.188-.441.442.188-.188.443zm-.378.885l-.443-.19.19-.442.442.19-.19.442zm-.378.885l-.442-.19.189-.441.442.188-.19.443zm-.377.884l-.443-.188.19-.443.442.189-.19.442zm-.378.886l-.442-.19.188-.442.442.189-.188.443zm-.333.845l-.473-.09c.022-.114.057-.229.105-.34l.07-.162.442.19-.07.161c-.034.08-.06.16-.074.241zm18.378.792l-.03-.48.48-.03.03.48-.48.03zm-.96.06l-.031-.48.48-.03.03.48-.479.03zm-.96.06l-.032-.48.48-.03.031.48-.48.03zm-.96.06l-.031-.48.48-.03.03.48-.48.03zm-15.8.03c-.089-.166-.15-.344-.18-.531l.476-.075c.02.131.063.257.127.375l-.422.23zm14.84.03l-.032-.48.48-.031.031.48-.48.03zm-.961.059l-.03-.48.479-.03.03.48-.48.03zm-.96.06l-.031-.48.48-.03.03.48-.48.03zm-.961.06l-.03-.48.48-.03.03.48-.48.03zm-.96.06l-.03-.48.48-.03.03.48-.48.03zm-.96.06l-.031-.48.48-.03.03.48-.479.03zm-.96.06l-.031-.48.48-.03.03.48-.48.03zm-.961.06l-.03-.48.479-.03.031.48-.48.03zm-.96.06l-.03-.481.479-.03.03.48-.48.03zm-.96.059l-.03-.48.479-.03.03.48-.48.03zm-.96.06l-.031-.48.48-.03.03.48-.48.03zm-.961.06l-.03-.48.48-.03.03.48-.48.03zm-3.455.05c-.174-.07-.333-.172-.475-.298l.323-.358c.1.09.212.162.336.212l-.184.445zm2.494.01l-.03-.48.48-.03.03.48-.48.03zm-.959.06l-.031-.48.48-.03.03.48-.479.03zm-.914.053l-.072-.002.019-.48h.057l.399-.022.03.48-.325.021-.108.003zM64.23 65.571l-.023-.48.48-.024.023.481-.48.023zm-.961.046l-.023-.48.48-.023.024.48-.481.023zm-.962.047l-.022-.481.48-.023.023.48-.48.024zm-.96.046l-.023-.481.48-.023.024.48-.48.024zm-.961.046l-.023-.48.48-.024.023.48-.48.024zm-.961.046l-.023-.48.48-.024.023.48-.48.024zm-.962.046l-.023-.48.481-.024.023.48-.48.024zm-.96.046l-.023-.48.48-.023.024.48-.48.023zm-.961.046l-.023-.48.48-.024.023.48-.48.024zm-.961.046l-.023-.48.48-.023.023.48-.48.023zm-.962.047l-.023-.481.481-.023.023.48-.48.024zm-.96.046l-.023-.48.48-.024.023.48-.48.024zm-.961.045l-.023-.48.48-.023.023.481-.48.022zm-.961.047l-.023-.48.48-.024.023.48-.48.024zm-.962.046l-.023-.48.481-.024.023.48-.48.024zm-.96.046l-.024-.48.48-.024.024.481-.48.023zm-.961.046l-.023-.48.48-.023.023.48-.48.023zm-.962.046l-.022-.48.48-.023.023.48-.48.023zm-.96.046l-.024-.48.481-.023.022.48-.48.023zm-.962.047l-.023-.481.48-.023.024.48-.48.024zm-.912.09l-.11-.468c.168-.04.341-.066.513-.078l.035.48c-.148.01-.295.033-.438.067zm-.82.331l-.247-.412c.147-.087.303-.166.464-.23l.18.445c-.138.055-.27.122-.397.197zm-.679.566l-.363-.317c.112-.128.237-.25.373-.362l.307.37c-.113.094-.22.197-.317.309zm-.476.745l-.44-.193c.07-.159.152-.313.243-.457l.407.259c-.08.124-.15.254-.21.39zm-.376.883l-.442-.19.189-.441.442.188-.189.443zm-.378.885l-.442-.19.188-.442.443.189-.19.443zm-.378.885l-.442-.19.189-.442.442.19-.189.442zm-.378.884l-.442-.19.188-.441.443.189-.19.442zm-.378.885l-.442-.189.19-.442.441.188-.189.443zm-.378.885l-.442-.19.188-.441.443.188-.19.443zm-.377.885l-.444-.19.19-.442.442.189-.188.443zm-.38.884l-.441-.189.189-.442.442.19-.19.441zm-.377.885l-.443-.189.19-.443.442.19-.189.442zm-.378.885l-.442-.19.189-.441.442.188-.189.443zm-.378.884l-.443-.188.19-.443.442.19-.189.441zm-.378.886l-.442-.189.189-.443.442.19-.189.442zm-.378.884l-.442-.188.188-.443.444.19-.19.441zm-.377.885l-.442-.189.189-.442.442.189-.189.442zm-.378.885l-.443-.189.19-.442.442.189-.189.442zm-.378.885l-.443-.19.19-.442.442.19-.189.442zm-.379.885l-.441-.189.189-.443.442.19-.19.442zm-.377.884l-.442-.189.189-.442.442.19-.189.441zm-.378.886l-.442-.19.188-.442.443.189-.19.443zm-.378.884l-.442-.19.189-.442.442.19-.189.442zm-.378.885l-.442-.19.188-.442.443.189-.19.443zm-.378.885l-.442-.19.19-.441.441.188-.189.443zm-.233.546l-.442-.188.044-.105.441.188-.043.105zM97.124 67.422h.482v-.481h-.482v.48zm.962 0h.482v-.481h-.482v.48zm.963 0h.482v-.481h-.482v.48zm.962 0h.482v-.481h-.482v.48zm.962 0h.48v-.481h-.48v.48zm1.308.107c-.112-.06-.235-.095-.363-.105l.035-.48c.196.015.382.069.555.16l-.227.425zm.46.584c-.032-.124-.089-.239-.17-.34l.378-.298c.121.153.208.327.257.515l-.465.123zm.33.958l-.45-.175.086-.217c.023-.062.04-.126.051-.19l.475.078c-.016.097-.042.193-.078.286l-.085.218zm-.349.896l-.449-.173.174-.449.449.174-.174.448zm-.349.897l-.448-.174.174-.448.448.174-.174.448zm-.349.897l-.449-.174.176-.449.448.175-.175.448zm-.348.897l-.449-.174.174-.448.449.173-.174.449zm-.35.897l-.447-.175.174-.448.449.174-.175.449zm-.348.897l-.448-.175.174-.449.448.175-.174.449zm-.348.896l-.45-.174.175-.448.449.174-.174.448zm-.349.897l-.448-.175.174-.448.449.174-.175.449zm-.349.897l-.448-.175.174-.449.448.175-.174.449zm-.349.896l-.448-.174.174-.449.449.175-.175.448zm-.471.934l-.35-.329c.08-.085.142-.185.185-.294l.463.136-.014.036c-.065.169-.161.32-.284.451zm-1.001.446l-.035-.481c.147-.003.264-.028.376-.076l.19.443c-.169.072-.347.11-.531.114zm-.99.017l-.009-.48.482-.01.008.482-.481.008zm-.962.017l-.009-.48.482-.01.008.482-.481.008zm-.962.018l-.009-.482.48-.008.01.481-.481.009zm-.961.017l-.01-.481.481-.01.009.482-.48.01zm-.964.016l-.007-.48.48-.01.009.482-.482.008zm-.962.018l-.007-.482.48-.008.009.482-.482.008zm-.962.018l-.007-.482.48-.008.009.48-.482.01zm-.96.016l-.01-.48.481-.01.009.482-.48.008zm-.963.018l-.01-.482.482-.009.01.482-.482.009zm-.963.016l-.009-.481.483-.008.008.481-.482.008zm-.962.018l-.007-.481.48-.01.009.482-.482.009zm-.96.017l-.01-.482.481-.008.01.481-.48.01zm-.962.017l-.01-.481.481-.009.01.481-.48.009zm-.963.017l-.008-.48.48-.01.01.482-.482.008zm-.962.017l-.008-.481.481-.008.008.48-.481.01zm-.961.017l-.01-.48.48-.009.01.481-.48.008zm-.962.018l-.01-.481.48-.01.01.482-.48.009zm-.963.017l-.008-.482.48-.008.01.48-.482.01zm-.961.017l-.01-.481.482-.01.008.482-.48.009zm-.962.018l-.01-.482.482-.009.009.482-.481.009zm-.962.016l-.01-.481.48-.008.01.48-.48.01zm-.778.182l-.282-.39c.159-.115.335-.195.525-.236l.102.47c-.124.028-.24.08-.345.156zm-.415.685l-.454-.163.09-.25c.029-.081.065-.16.109-.233l.416.24c-.028.049-.052.1-.07.153l-.091.253zm-.326.906l-.452-.163.162-.452.453.162-.163.453zm-.324.905l-.452-.161.161-.454.454.163-.163.452zm-.325.906l-.453-.163.163-.452.454.163-.164.452zm-.324.906l-.453-.162.162-.453.453.162-.162.453zm-.325.905l-.452-.161.162-.453.453.162-.163.452zm-.324.906l-.453-.162.162-.453.453.163-.162.452zm-.325.906l-.453-.162.162-.453.453.162-.162.453zm-.325.906l-.453-.162.163-.453.452.162-.162.453z" transform="translate(16.64 16)"></path>
    </g>
  </g>
</svg>
