<?xml version="1.0" encoding="UTF-8"?>
<svg xmlns="http://www.w3.org/2000/svg" width="25" height="25" viewBox="0 0 25 25">
  <path fill="#2B2E42" fill-rule="evenodd" d="M13.926 0c2.129.005 2.609.023 3.727.074 1.33.061 2.24.272 3.034.581.822.32 1.52.747 2.214 1.442a6.128 6.128 0 0 1 1.442 2.214c.309.795.52 1.704.581 3.034.057 1.248.073 1.7.075 4.533v1.242c-.002 2.833-.018 3.286-.075 4.533-.06 1.33-.272 2.24-.581 3.034a6.128 6.128 0 0 1-1.442 2.214 6.128 6.128 0 0 1-2.214 1.442c-.795.309-1.704.52-3.034.581-1.247.057-1.7.073-4.533.075h-1.242c-2.832-.002-3.285-.018-4.533-.075-1.33-.06-2.239-.272-3.034-.581a6.128 6.128 0 0 1-2.214-1.442 6.127 6.127 0 0 1-1.442-2.214c-.309-.795-.52-1.704-.58-3.034-.052-1.118-.07-1.598-.075-3.727v-2.854c.005-2.129.023-2.608.074-3.727.061-1.33.272-2.239.581-3.034.32-.822.747-1.519 1.442-2.214A6.127 6.127 0 0 1 4.311.655c.795-.309 1.704-.52 3.034-.58C8.464.022 8.943.004 11.072 0zM12.5 6.08a6.419 6.419 0 1 0 0 12.838 6.419 6.419 0 0 0 0-12.838zm0 2.253a4.167 4.167 0 1 1 0 8.333 4.167 4.167 0 0 1 0-8.333zm6.673-4.006a1.5 1.5 0 1 0 0 3 1.5 1.5 0 0 0 0-3z"></path>
</svg>
