<?xml version="1.0" encoding="UTF-8"?>
<svg xmlns="http://www.w3.org/2000/svg" width="100" height="100" viewBox="0 0 100 100">
  <defs>
    <linearGradient id="prefix__a" x1="50%" x2="50%" y1="7.2%" y2="100%">
      <stop offset="0%" stop-color="#D8EFF9"></stop>
      <stop offset="100%" stop-color="#F9FBFB"></stop>
    </linearGradient>
  </defs>
  <g fill="none" fill-rule="evenodd">
    <path fill="url(#prefix__a)" d="M49.93 0C22.354 0 0 22.214 0 49.619c0 27.403 22.354 49.618 49.93 49.618 27.577 0 49.93-22.215 49.93-49.618C99.86 22.214 77.508 0 49.93 0z"></path>
    <path fill="#FFF" fill-rule="nonzero" d="M6.637 38.363s5.927 2.793 13.307-.559c0 0 3.581 4.358 11.173 7.436 0 0-8.106 5.866-16.2 3.24l-8.28-10.117z"></path>
    <path fill="#FFDE6C" fill-rule="nonzero" d="M21.687 47.201l-6.402-6.575c-.134-.138-.132-.358.006-.492.137-.134.357-.132.491.006l6.402 6.58c.066.066.103.154.103.246 0 .093-.037.181-.103.246-.14.134-.363.13-.497-.01z"></path>
    <path fill="#FFDE6C" fill-rule="nonzero" d="M19.246 46.927l-5.503-5.63c-.128-.132-.126-.342.006-.47.13-.128.34-.126.469.005l5.503 5.654c.083.085.114.207.082.322-.032.114-.123.202-.238.231-.115.03-.236-.004-.32-.09v-.022zM17.117 46.793l-3.497-3.648c-.105-.11-.101-.283.008-.388.11-.105.284-.101.389.008l3.491 3.648c.068.071.093.173.066.267-.028.094-.103.167-.199.19-.095.023-.195-.006-.263-.077h.005z" opacity=".5"></path>
    <path fill="#FFDE6C" fill-rule="nonzero" d="M23.838 45.112l-2.335-2.403c-.087-.066-.126-.177-.101-.284.024-.106.109-.188.216-.21.107-.022.217.02.281.109l2.336 2.402c.052.05.081.12.081.193 0 .073-.03.142-.081.193-.053.053-.124.082-.199.082-.074 0-.146-.03-.198-.082z"></path>
    <path fill="#DBDCDD" fill-rule="nonzero" d="M17.022 48.939s-2.346.134-2.91-.593L6.43 40.268s-1.039-2.547 1.391-3.525l8.38 8.838s-2.525 3.296.821 3.358z"></path>
    <path fill="#FFDE6C" fill-rule="nonzero" d="M22.715 46.056l-5.503-5.654c-.063-.063-.098-.148-.098-.237 0-.09.035-.175.098-.238.062-.062.147-.098.235-.098s.173.036.235.098l5.508 5.66c.097.081.14.211.11.335-.03.123-.127.22-.251.248-.124.028-.253-.016-.334-.114z"></path>
    <path fill="#FFF" fill-rule="nonzero" d="M92.05 61.648s-5.357 1.117-10.698-3.033c0 0-3.754 2.838-10.508 3.854 0 0 5.435 6.347 12.541 5.8l8.665-6.621z"></path>
    <path fill="#FFDE6C" fill-rule="nonzero" d="M78.106 65.888l6.48-4.09c.067-.04.114-.105.132-.18.018-.076.005-.156-.036-.221-.088-.134-.266-.173-.403-.09l-6.48 4.09c-.124.09-.158.26-.077.39.082.129.25.174.384.101z"></path>
    <path fill="#FFDE6C" fill-rule="nonzero" d="M80.14 66.156l5.586-3.514c.129-.083.168-.253.09-.385-.084-.13-.256-.167-.386-.084l-5.586 3.514c-.13.084-.169.254-.09.386.084.129.256.167.386.083zM81.9 66.447l3.547-2.28c.075-.04.12-.12.118-.205-.002-.085-.05-.163-.127-.2-.077-.038-.168-.03-.237.02l-3.553 2.28c-.106.069-.136.211-.067.318.07.106.212.136.318.067z" opacity=".5"></path>
    <path fill="#FFDE6C" fill-rule="nonzero" d="M76.77 63.765l2.364-1.491c.106-.07.138-.21.073-.319-.033-.051-.086-.087-.146-.1-.06-.012-.122 0-.173.033l-2.352 1.492c-.052.031-.089.082-.102.14-.014.06-.003.122.03.173.066.102.202.134.307.072z"></path>
    <path fill="#DBDCDD" fill-rule="nonzero" d="M81.564 68.207s1.877.558 2.475.084l7.821-5.028s1.341-1.866-.424-3.129l-8.542 5.536s1.39 3.14-1.33 2.537z"></path>
    <path fill="#FFDE6C" fill-rule="nonzero" d="M77.497 64.754l5.587-3.514c.064-.038.11-.1.127-.173.017-.073.003-.15-.038-.212-.083-.13-.256-.167-.385-.084L77.2 64.285c-.062.039-.105.101-.121.172-.016.072-.002.146.037.208.037.064.1.11.171.126.072.017.148.004.21-.037z"></path>
    <path fill="#FFC80A" fill-rule="nonzero" d="M70.084 11.33H29.609c-3.703 0-6.704 3.001-6.704 6.704V91.86c16.402 10.547 37.443 10.58 53.877.084V18.017c-.01-3.694-3.004-6.684-6.698-6.687z"></path>
    <path fill="#FFF" fill-rule="nonzero" d="M70.62 14.978h-5.257c-.8 0-1.506.527-1.732 1.296l-.229.765c-.256.862-1.05 1.452-1.95 1.447H37.917c-.915-.002-1.714-.618-1.95-1.503l-.173-.659c-.212-.794-.932-1.346-1.754-1.346h-5.335c-1.655-.003-3 1.334-3.006 2.988v75.581c14.88 8.236 32.927 8.332 47.894.257V17.966c-.006-1.641-1.33-2.973-2.972-2.988z"></path>
    <path fill="#F8FDFF" stroke="#DCECF3" stroke-width=".9" d="M70.056 92.737H29.274c-.563-.041-.992-.52-.972-1.083V23.57c-.038-.28.038-.563.212-.786.173-.223.429-.367.71-.399h40.782c.578.019 1.034.5 1.022 1.079v68.111c.026.573-.402 1.065-.972 1.118"></path>
    <rect width="11.777" height="1" x="41.503" y="14.279" fill="#2B2D42" fill-rule="nonzero" opacity=".5" rx=".5"></rect>
    <rect width="2.24" height="1" x="55.106" y="14.279" fill="#2B2D42" fill-rule="nonzero" opacity=".5" rx=".5"></rect>
    <path fill="#ECF1F8" d="M67.34 73.676l-35.86-.23c-.186 0-.364-.073-.495-.206-.131-.132-.204-.31-.203-.497l.034-6.972c-.009-.19.064-.374.2-.507.134-.133.32-.203.51-.191l35.86.19c.377.027.676.33.698.71l-.04 7c-.01.383-.32.691-.703.703"></path>
    <path fill="#FFF" d="M66.676 72.933l-35.257-.224c-.188.004-.368-.07-.5-.205-.13-.134-.2-.316-.193-.504l.034-6.966c-.008-.19.064-.374.2-.507.135-.133.32-.203.51-.192l35.256.19c.378.028.677.331.699.71l-.04 7c0 .186-.074.364-.206.495-.132.132-.311.204-.497.203"></path>
    <path fill="#BEC6D5" d="M50.184 67.335l-8.592.151.034-1.006 8.564-.15-.006 1.005zm13.877 2.989l-22.43-.095v-1.302l22.436.09-.006 1.307z"></path>
    <circle cx="35.95" cy="68.447" r="2.475" fill="#BEC6D5" fill-rule="nonzero"></circle>
    <path fill="#ECF1F8" d="M66.888 84.358l-35.475-.168c-.187-.003-.365-.08-.494-.216-.13-.136-.199-.318-.193-.505v-6.972c-.004-.177.064-.35.19-.475.126-.126.297-.194.475-.19l35.475.134c.375-.003.686.29.704.665v7.006c-.018.375-.329.668-.704.665"></path>
    <path fill="#000" fill-rule="nonzero" d="M73.547 89.23l-39.44-3.258c-.386-.035-.67-.375-.638-.76l.637-6.916c.006-.19.093-.37.24-.492.145-.123.337-.177.526-.15l39.43 3.229c.372.061.642.388.631.765l-.631 6.95c-.047.378-.38.655-.76.631" opacity=".1"></path>
    <path fill="#FFF" d="M72.95 88.436l-39.246-3.224c-.187-.012-.361-.101-.481-.246s-.174-.333-.15-.52l.636-6.915c.008-.188.095-.365.24-.485s.334-.174.52-.147l39.274 3.196c.371.06.642.384.637.76l-.637 6.95c-.038.384-.38.666-.765.63"></path>
    <path fill="#BEC6D5" d="M49.458 81.184l-5.47-.285.079-.983 5.447.285-.056.983zm21.045 4.235l-26.587-1.821.078-1.274 26.587 1.81-.078 1.285z"></path>
    <circle cx="38.62" cy="81.464" r="2.676" fill="#BEC6D5" fill-rule="nonzero"></circle>
    <path fill="#ECF1F8" d="M66.358 61.162c.366-.003.666-.293.681-.66v-6.87c-.015-.368-.32-.658-.687-.654l-34.832-.129c-.176-.006-.347.06-.471.184-.125.124-.193.294-.189.47v6.832c0 .37.291.672.66.687l34.832.162"></path>
    <path fill="#000" fill-rule="nonzero" d="M61.71 58.1l-38.805 2.235c-.379.016-.7-.275-.72-.653l-.325-6.816c-.019-.185.042-.369.166-.506.125-.138.302-.216.488-.215l38.799-2.268c.371.009.679.29.72.66l.325 6.843c.004.374-.281.688-.654.72" opacity=".1"></path>
    <path fill="#FFF" d="M61.022 57.391L22.42 59.626c-.183.014-.365-.049-.5-.172-.137-.124-.217-.298-.22-.482l-.33-6.816c-.02-.184.041-.368.166-.506.124-.137.302-.215.487-.214l38.61-2.274c.37.009.678.29.72.66l.324 6.843c.016.377-.276.697-.654.715"></path>
    <path fill="#BEC6D5" d="M59.62 54.96L32.1 56.677v-.983l27.526-1.743-.006 1.01zM42.57 53.1l-10.386.732v-.983l10.386-.765V53.1z"></path>
    <circle cx="27.402" cy="55.039" r="2.475" fill="#BEC6D5" fill-rule="nonzero"></circle>
    <circle cx="49.62" cy="36.693" r="9.983" fill="#FFC80A" fill-rule="nonzero"></circle>
    <path fill="#2B2D42" fill-rule="nonzero" d="M54.955 34.955L53.726 33.687 48.397 38.86 45.24 35.575 43.81 36.955 48.397 41.497 49.391 40.363z" opacity=".6"></path>
    <path fill="#FFF" fill-rule="nonzero" d="M54.955 34.397L53.726 33.128 48.397 38.302 45.24 35.017 43.81 36.397 48.397 40.939 49.391 39.804z"></path>
    <circle cx="49.62" cy="36.693" r="8.101" stroke="#FFF" stroke-width=".5"></circle>
  </g>
</svg>
