<?xml version="1.0" encoding="UTF-8"?>
<svg xmlns="http://www.w3.org/2000/svg" xmlns:xlink="http://www.w3.org/1999/xlink" width="160" height="160" viewBox="0 0 160 160">
  <defs>
    <path id="prefix__a" d="M0.208 0.677L64.481 0.677 64.481 117.308 0.208 117.308z"></path>
  </defs>
  <g fill="none" fill-rule="evenodd">
    <path d="M0 0H160V160H0z"></path>
    <g>
      <path fill="#FFF" d="M87.11 80.075L17.684 96.51c-3.508.831-7.057-1.36-7.887-4.868L.176 51.01c-.83-3.508 1.36-7.058 4.867-7.888l69.429-16.436c3.507-.831 7.056 1.36 7.886 4.867l9.62 40.634c.83 3.508-1.36 7.057-4.867 7.888" transform="translate(15 21)"></path>
      <path fill="#FFC80A" d="M47.94 85.97l-30.993 7.337-7.334-30.975c-.63-2.661 1.017-5.328 3.678-5.958l22.428-5.31c2.07-.49 4.145.791 4.635 2.86L47.94 85.97z" transform="translate(15 21)"></path>
      <path fill="#2B2D42" fill-opacity=".2" d="M16.887 78.303c.406 1.442 2.436 1.347 2.436 1.347s2.846 7.79 7.366 7.104l.689 2.914s-3.684.871-7.182 2.342c-.617.258-1.192.582-1.725.936l29.048-6.877c-.136-.014-.261-.041-.4-.048-3.117-.16-9.864 1.31-9.864 1.31l-.84-3.008c4.086-1.16 3.792-9.618 3.792-9.618s1.793-.552 1.362-2.374c-.432-1.82-2.332-1.183-2.332-1.183l-.818-3.456c-.49-2.064-1.517-3.37-3.454-7.005-1.923-3.606-5.448-2.429-5.713-3.007-.266-.578-2.661-2.576-5.604-2.007-2.944.569-5.57 2.472-7.171 7.084-1.602 4.61 1.561 13.094 1.561 13.094s-1.556 1.01-1.15 2.452" transform="translate(15 21)"></path>
      <path fill="#FFF" d="M35.037 82.9l.692 2.476s5.555-1.21 8.12-1.078c2.566.132 4.091 1.671 4.091 1.671l-30.993 7.338s1.854-2.868 4.736-4.078c2.881-1.21 5.913-1.927 5.913-1.927l-.569-2.4c-3.72.564-6.065-5.85-6.065-5.85s-1.67.08-2.004-1.108c-.335-1.189.948-2.02.948-2.02S17.3 68.94 18.619 65.142c1.32-3.796 3.482-5.364 5.906-5.832 2.422-.468 4.396 1.177 4.615 1.652.216.477 3.12-.493 4.703 2.477 1.595 2.993 2.441 4.068 2.844 5.768l.673 2.845s1.566-.525 1.92.975c.355 1.5-1.121 1.955-1.121 1.955s.241 6.963-3.122 7.918" transform="translate(15 21)"></path>
      <path fill="#BFD1D8" d="M74.458 26.69l-3.014.712c3.516-.832 7.073 1.364 7.905 4.879l9.597 40.538c.349 1.475-.57 2.967-2.046 3.316l-70.33 16.65c-1.847.437-3.714-.715-4.152-2.561L2.981 50.36c-.832-3.515 1.363-7.073 4.879-7.905l-2.802.664c-3.516.833-5.71 4.39-4.879 7.905L9.793 91.63c.832 3.516 4.388 5.71 7.904 4.878l69.4-16.429c3.515-.832 5.71-4.39 4.878-7.904l-9.613-40.607c-.832-3.515-4.388-5.71-7.904-4.878" transform="translate(15 21)"></path>
      <path fill="#DCECF3" d="M82.362 31.568c-.833-3.516-4.39-5.711-7.905-4.88L5.058 43.119c-3.515.833-5.71 4.39-4.879 7.905l82.183-19.455z" transform="translate(15 21)"></path>
      <path fill="#BFD1D8" d="M74.92 54.139l-25.375 6.007c-1.49.353-2.998-.578-3.351-2.068l-.279-1.18c-.354-1.49.577-2.998 2.068-3.35l25.375-6.008c1.49-.353 2.996.578 3.35 2.068l.279 1.18c.353 1.49-.578 2.997-2.068 3.35" transform="translate(15 21)"></path>
      <path fill="#DCECF3" d="M61.073 67.542l-9.26 2.191c-1.488.353-2.997-.577-3.35-2.068l-.278-1.18c-.353-1.49.577-2.998 2.068-3.35l9.258-2.191c1.49-.354 2.997.577 3.35 2.067l.28 1.18c.353 1.49-.578 2.997-2.068 3.35" transform="translate(15 21)"></path>
      <path fill="#BFD1D8" d="M74.46 74.497l-20.376 4.824c-1.49.353-2.997-.578-3.35-2.068l-.28-1.18c-.353-1.49.578-2.998 2.068-3.35L72.9 67.898c1.489-.353 2.996.577 3.35 2.068l.278 1.18c.354 1.49-.577 2.997-2.067 3.35" transform="translate(15 21)"></path>
      <path fill="#DCECF3" d="M63.836 47.045l-16.47 3.9c-1.49.352-2.998-.579-3.35-2.069l-.28-1.18c-.353-1.49.578-2.998 2.068-3.35l16.47-3.899c1.49-.353 2.997.577 3.35 2.068l.28 1.18c.353 1.49-.578 2.998-2.068 3.35" transform="translate(15 21)"></path>
      <path fill="#2B2D42" fill-opacity=".2" d="M54.82 31.338l-2.697 17.924c-.043.328-.062.66-.053.991.371 13.885 3.58 26.445 7.387 36.369l9.306-2.153-3.634-55.571-10.309 2.44z" transform="translate(15 21)"></path>
      <g transform="translate(15 21) translate(64.922)">
        <mask id="prefix__b" fill="#fff">
          <use xlink:href="#prefix__a"></use>
        </mask>
        <path fill="#957A25" d="M32.61 117.308c26.406-3.678 27.447-28.991 27.447-28.991l4.395-42.625c.145-1.411-.241-2.827-1.084-3.968L39.583 9.51c-1.082-1.466-2.648-2.5-4.42-2.92L10.95.858C9.465.506 7.905.669 6.523 1.319L.208 3.226 32.61 117.308z" mask="url(#prefix__b)"></path>
      </g>
      <path fill="#2B2D42" fill-opacity=".2" d="M73.8 33.754l49.549 13.278 5.893-3.204c-.175-.752-.486-1.472-.952-2.105L104.505 9.51c-1.082-1.466-2.648-2.5-4.421-2.92L75.87.858c-1.485-.352-3.046-.19-4.426.461L65.13 3.227 73.8 33.754z" transform="translate(15 21)"></path>
      <path fill="#FFC80A" d="M58.115 49.262l5.863-44.29c.187-1.409 1.538-2.356 2.926-2.05l26.928 5.927c1.465.321 2.763 1.16 3.66 2.362l24.2 32.416c1.527 2.046 2.226 4.59 1.958 7.128l-4.975 47.323c-.024.217-.058.434-.103.649-.642 3.01-5.842 22.028-34.152 18.753-.315-.036-.607-.184-.821-.417-2.973-3.22-24.495-27.85-25.537-66.81-.009-.33.01-.662.053-.99" transform="translate(15 21)"></path>
      <path fill="#FFEBB5" d="M64.224 51.332l4.77-36.035c.152-1.146 1.25-1.917 2.38-1.668l21.908 4.822c1.192.263 2.25.945 2.979 1.922l19.688 26.374c1.241 1.663 1.81 3.734 1.594 5.8l-4.05 38.5c-.017.177-.045.352-.083.528-.522 2.448-4.753 17.922-27.786 15.258-.255-.03-.493-.15-.668-.34-2.418-2.62-19.927-22.658-20.775-54.355-.008-.269.008-.54.043-.806" transform="translate(15 21)"></path>
      <path fill="#FFC80A" d="M67.992 52.074l3.986-30.11c.126-.958 1.045-1.602 1.988-1.395l18.308 4.03c.996.22 1.879.79 2.489 1.606l16.451 22.039c1.038 1.39 1.514 3.12 1.332 4.845l-3.382 32.172c-.016.15-.038.296-.07.442-.437 2.045-3.973 14.977-23.22 12.75-.214-.024-.412-.125-.558-.284-2.02-2.19-16.652-18.934-17.36-45.42-.006-.225.007-.451.036-.675" transform="translate(15 21)"></path>
      <path fill="#2B2D42" fill-opacity=".2" d="M67.992 52.074l3.986-30.11c.126-.958 1.045-1.602 1.988-1.395l18.308 4.03c.996.22 1.879.79 2.489 1.606l16.451 22.039c1.038 1.39 1.514 3.12 1.332 4.845l-3.382 32.172c-.016.15-.038.296-.07.442-.437 2.045-3.973 14.977-23.22 12.75-.214-.024-.412-.125-.558-.284-2.02-2.19-16.652-18.934-17.36-45.42-.006-.225.007-.451.036-.675" transform="translate(15 21)"></path>
      <path fill="#2B2D42" fill-opacity=".2" d="M86.812 44.447c.285-2.843 1.159-3.821 1.227-3.893.58.055 1.221.238 1.947.636 2.823 1.555 4.127 5.448 4.689 7.926.281 1.244.342 2.528.186 3.793l-.727 5.875-8.295-6.378c.28-2.125.767-5.906.973-7.959zm8.337 52.245l4.592-2.096c.679-.31 1.15-.95 1.24-1.692l3.104-25.136c.093-.755-.22-1.503-.823-1.966l-2.145-1.65.937-7.91s1.68-6.94-2.504-15.336c-3.071-6.162-7.467-7.997-9.59-8.537-.725-.185-1.493-.09-2.157.255l-2.426 1.263c-2.24.29-3.344 1.962-3.344 1.962s-1.695 1.86-2.42 8.458c-.333 3.045-.57 4.991-.73 6.216l-3.778 1.437c-.23-.024-.461.135-.492.392l-3.167 25.645c-.02.156.045.31.167.407L94.51 96.39l.64.302z" transform="translate(15 21)"></path>
      <path fill="#BFD1D8" d="M72.822 50.392l5.457-2.077c.737-.371 1.623-.287 2.277.216l20.422 15.702c.604.464.916 1.212.823 1.967l-3.104 25.136c-.092.74-.56 1.381-1.24 1.69l-4.593 2.098c-.105.048-.306-.135-.638-.303l2.875-24.23c.072-.72-.22-1.426-.78-1.881L72.821 50.392z" transform="translate(15 21)"></path>
      <path fill="#DCECF3" d="M101.801 66.2c.094-.755-.22-1.503-.822-1.967L80.556 48.531c-.655-.503-1.54-.587-2.278-.216l-5.456 2.077L94.32 68.71c.56.455.852 1.162.78 1.88l6.7-4.39z" transform="translate(15 21)"></path>
      <path fill="#FFF" d="M72.329 50.783L69.162 76.43c-.019.155.044.31.168.407l22.896 17.986c.274.215.679.048.722-.298l3.11-25.177c.105-.859-.256-1.709-.947-2.23L73.044 50.48c-.276-.208-.672-.04-.715.303" transform="translate(15 21)"></path>
      <path fill="#BEC6D5" d="M83.094 32.319l2.425-1.263c.664-.345 1.432-.441 2.158-.256 2.122.54 6.517 2.376 9.588 8.536 4.186 8.397 2.504 15.336 2.504 15.336l-1.1 9.3-3.282.97-.635-17.12-4.931-9.038-4.716-1.866-3.431-1.155 1.42-3.444z" transform="translate(15 21)"></path>
      <path fill="#BEC6D5" d="M85.768 38.971s-.943.95-1.24 3.907c-.297 2.958-1.179 9.515-1.179 9.515l-3.048 1.157.43-12.75 2.025-3.049 3.012 1.22z" transform="translate(15 21)"></path>
      <path fill="#BFD1D8" d="M85.768 38.971s-.943.95-1.24 3.907c-.297 2.958-1.179 9.515-1.179 9.515l-3.048 1.157.43-12.75 2.025-3.049 3.012 1.22z" transform="translate(15 21)"></path>
      <path fill="#2B2D42" fill-opacity=".2" d="M85.768 38.971s-.943.95-1.24 3.907c-.297 2.958-1.179 9.515-1.179 9.515l-3.048 1.157.43-12.75 2.025-3.049 3.012 1.22z" transform="translate(15 21)"></path>
      <path fill="#BFD1D8" d="M83.094 32.319l2.425-1.263c.664-.345 1.432-.441 2.158-.256 2.122.54 6.517 2.376 9.588 8.536 4.186 8.397 2.504 15.336 2.504 15.336l-1.1 9.3-3.282.97-.635-17.12-4.931-9.038-4.716-1.866-3.431-1.155 1.42-3.444z" transform="translate(15 21)"></path>
      <path fill="#ECF1F8" d="M76.332 50.825l3.97 2.726 1.321-10.701c.13-1.05.572-2.052 1.316-2.805.945-.955 2.485-1.678 4.763-.423 2.824 1.555 4.128 5.447 4.69 7.925.281 1.245.34 2.527.185 3.794L91.31 61.598l4.077 3.343 1.353-10.954c.069-.567.102-1.136.098-1.706-.022-2.952-.627-11.322-6.44-16.686-7.156-6.602-10.649-1.315-10.649-1.315s-1.695 1.86-2.419 8.459c-.724 6.6-.998 8.086-.998 8.086" transform="translate(15 21)"></path>
      <path fill="#FFF" d="M76.332 50.825l3.97 2.726 1.321-10.701c.13-1.05.572-2.052 1.316-2.805.945-.955 2.485-1.678 4.763-.423 2.824 1.555 4.128 5.447 4.69 7.925.281 1.245.34 2.527.185 3.794L91.31 61.598l4.077 3.343 1.353-10.954c.069-.567.102-1.136.098-1.706-.022-2.952-.627-11.322-6.44-16.686-7.156-6.602-10.649-1.315-10.649-1.315s-1.695 1.86-2.419 8.459c-.724 6.6-.998 8.086-.998 8.086" transform="translate(15 21)"></path>
      <path fill="#BFD1D8" d="M81.127 71.599l-.434 3.506c-.038.308.003.62.121.91.248.61.806 1.038 1.46 1.12.369.045.704-.217.748-.584l.38-3.08c.036-.283.17-.543.375-.742.284-.272.675-.887.768-2.237.106-1.577-.947-2.901-1.54-3.514-.336-.348-.825-.524-1.3-.425-.47.099-.974.453-1.1 1.477-.19 1.535.219 2.604.436 3.042.08.162.107.346.086.527" transform="translate(15 21)"></path>
    </g>
  </g>
</svg>
